<?xml version="1.0" encoding="utf-8"?>
<!-- Generator: Adobe Illustrator 27.9.4, SVG Export Plug-In . SVG Version: 9.03 Build 54784)  -->
<svg version="1.1" id="Calque_1" xmlns="http://www.w3.org/2000/svg" xmlns:xlink="http://www.w3.org/1999/xlink" x="0px" y="0px"
	 viewBox="0 0 458 327.2" style="enable-background:new 0 0 458 327.2;" xml:space="preserve">
<style type="text/css">
	.st0{fill:#FFFFFF;}
	.st1{fill:#F3953F;}
</style>
<g>
	<path class="st0" d="M18.2,205.1l0.3-0.1c1.6,0.6,3.1-0.2,4.7-0.4c0.7,0,1.3,0,2,0c2,0,4,0,6-0.1c0.3,0,0.5,0,0.8,0l0,0
		c1.6,0.3,1.7-0.5,1.7-1.9c-0.1-2.2,0-4.5,0-6.7c0-0.3-0.1-0.6-0.1-0.9c-0.6-0.1-1.1-0.2-1.7-0.3c-0.7,0-1.4,0-2.1,0l0,0
		c-0.2-0.1-0.4-0.1-0.5,0c-2.7-0.1-5.4-0.1-8-0.2c-1.1,0-2.2,0.1-3.3,0.1c-1.1,0.3-2.2,0.4-3.3,0.1c-0.7,0.3-1.3,0.2-2,0
		c-0.4,0.1-0.8,0.1-1.2,0.2c-0.2,0-0.4,0-0.7,0c-1.9,0.5-2.7,1.7-2.7,3.6c0,2.6,0,5.3,0,7.9l0,0c0,1,0,2-0.1,3
		c-0.3,8.3-0.8,16.7-0.9,25c-0.1,3.8,1.3,4.8,5.3,4.7c0.8,0,1.5-0.1,2.3-0.2c4.9,0,9.8-0.3,14.6-0.8c4.4,0.1,4.4,0.1,4.3-4.1
		c0-1.4-0.4-2.8-0.3-4.2c0.1-1.6-0.9-1.7-2-1.8c-0.4,0-0.9,0-1.3,0c-0.2,0.1-0.5,0.2-0.7,0.3c-1.6,0-3.3,0-4.9,0
		c-2.2,0-4.9,1.4-6.4,0.1c-1.7-1.4-0.2-4.3-0.5-6.6c4.2-0.1,8.4-0.1,12.5-0.2c1,0,2.9,0.2,2.3-1.3c-1.1-2.8,1.4-6-1.1-8.5
		c-0.1-0.1-0.4,0-0.6,0c-3.7,0-7.5,0-11.2,0l0,0c-1.7,0-1.3-1.3-1.5-2.3c0.3-1.3,0.4-2.6,0-3.9c0.1-0.3,0.1-0.6,0.2-0.8L18.2,205.1z
		 M15.5,208.8c0.1,0.1,0.3,0.2,0.4,0.2C15.8,209,15.6,208.8,15.5,208.8L15.5,208.8z"/>
	<path class="st0" d="M137.6,71.1l0.8-0.2c4.2,1.6,8.1-0.6,12.1-1.1c1.7,0,3.5-0.1,5.2-0.1c5.1-0.1,10.2-0.1,15.3-0.2
		c0.7,0,1.4,0,2.1,0l0,0c4,0.7,4.5-1.4,4.3-4.8c-0.3-5.7,0-11.5,0-17.2c-0.1-0.8-0.1-1.5-0.2-2.3c-1.4-0.3-2.9-0.5-4.3-0.7
		c-1.8,0-3.6,0-5.5,0l0,0c-0.5-0.3-0.9-0.3-1.4,0c-6.9-0.1-13.8-0.3-20.7-0.4c-2.9,0.1-5.7,0.1-8.6,0.2c-2.8,0.9-5.7,1-8.5,0.2
		c-1.7,0.9-3.5,0.6-5.2,0.1c-1,0.2-2.1,0.3-3.1,0.5c-0.6,0-1.1,0.1-1.7,0.1c-4.8,1.2-7,4.5-7,9.3c0,6.8-0.1,13.6-0.1,20.4l0,0
		c-0.1,2.6-0.1,5.2-0.2,7.8c-0.8,21.5-2,43-2.3,64.5c-0.2,9.8,3.4,12.3,13.8,12.2c2,0,3.9-0.3,5.9-0.4c12.6,0,25.1-0.8,37.7-2.2
		c11.3,0.4,11.3,0.4,11.1-10.5c-0.1-3.6-0.9-7.3-0.8-10.9c0.2-4.1-2.2-4.5-5.2-4.7c-1.1,0-2.3,0-3.4,0c-0.6,0.3-1.2,0.5-1.8,0.8
		c-4.2,0-8.5,0-12.7,0c-5.6,0-12.7,3.5-16.5,0.3c-4.3-3.7-0.5-11.2-1.3-17c10.8-0.2,21.5-0.3,32.3-0.6c2.5-0.1,7.5,0.6,6-3.4
		c-2.8-7.3,3.6-15.5-2.9-21.9c-0.3-0.3-1.1-0.1-1.7-0.1c-9.6,0-19.3,0-28.9,0.1l0,0c-4.5,0.1-3.4-3.4-3.8-5.9
		c0.7-3.3,0.9-6.7,0.1-10c0.1-0.7,0.3-1.4,0.4-2.1L137.6,71.1z M130.5,80.4c0.4,0.2,0.8,0.5,1.1,0.5
		C131.3,80.9,130.9,80.6,130.5,80.4L130.5,80.4z"/>
	<path class="st0" d="M92.6,117c0.5-6.1,0.9-39.9,0.9-39.9C94,50.2,81.3,41.6,61,39c-8.3-2.8-16.8-0.7-25.2-0.7
		c-2.4,0-5.2,0.3-4.6-3.3c1.1-6.4-2.6-6.6-7.3-6.5c-13.8,0.2-13.8,0.1-14.5,14c-0.1,1.2,0.1,2.3,0.1,3.5C9.1,58.8,8.6,71.5,8.2,84.3
		c0.4,5.8,0.2,11.5-0.8,17.2c0.3,8,0.4,16-0.4,24c0,1.4-0.1,2.8-0.1,4.2c0.2,0.5,0.3,1,0.5,1.4c0.4,0.4,1.1,0.6,1.7,0.9
		c-0.6-0.3-1.2-0.5-1.7-0.9c-0.2,0.5-0.4,1-0.6,1.4c0.2,0.5,0.3,1,0.5,1.4c-0.2,0.9-0.3,1.9-0.5,2.8c0.1,7.6,0.2,15.2,0.3,22.8
		c0.5,4.4,3.5,4.7,7.1,4.8c15.7,0.4,31.4-0.5,47-1.9c7.6-2.7,14.5-6.7,19.8-12.9c1.1-1.8,2-3.6,3.3-5.3
		C90,136.3,92.1,123.1,92.6,117z M69.6,77.5c0,0,0.1,4.6,0,5.7S68.1,117,68.1,117c0,1.4,0.1,2.8,0.1,4.1c1.6,3.5-0.8,6.4-1.2,9.6
		c-0.8,0.8-1.9,1.3-1.9,2.7c-4.3,6.2-10.8,7.8-17.6,8.3c-6.3,0.5-12.6,0.4-18.9,0.5c0.2-0.4,0.2-0.8-0.2-1.1
		c0.2-1.9,0.4-3.8,0.7-5.7c-0.6-7.6,0.1-15.2,0.9-22.8c0,0-0.1-9.2,0.4-10.5c0.4-1.3,0.1-5.4,0-5.7c-0.1-0.4,0.8-4.7,0.9-5.2
		c0.1-0.4,0.1-4,0.1-4c-2.9-2.7-0.7-6-1.2-9c0-1.2,0.1-2.5,0.1-3.7c0.2-3.3,0.4-6.7,0.6-10c-1-2.7-0.8-4.7,2.7-4.7
		c9.1,0,18.2-2.1,27.3,0.3c0.2,0.4,0.3,0.7,0.4,1.1c4.5,0.3,8.1,2.5,8.3,7V77.5L69.6,77.5z"/>
	<path class="st1" d="M397.2,300.3c1.4-5.9-1.7-6.9-6.7-6.7c-14.9,0.6-29.8,1.4-44.8,1.2c-7.7-0.1-11.2,2.1-9.4,10.1
		c0.2,1,0.1,2.1,0.2,3.1c1.2,4.1-1.9,11.1,6.2,10.9c17.8-0.4,35.7-1.3,53.5-2c0.4-0.1,0.9-0.3,1.3-0.4c-0.4-0.1-0.9-0.3-1.3-0.4
		c-0.3-0.6-0.6-1.3-0.9-1.9C402.3,310.4,396.1,304.8,397.2,300.3z"/>
	<path class="st1" d="M172.9,9c1.4-5.9-1.7-6.9-6.7-6.7c-14.9,0.6-29.9,1.4-44.8,1.2c-7.7-0.1-11.2,2.1-9.4,10.1
		c0.2,1,0.1,2.1,0.2,3.1c1.2,4.1-1.9,11.1,6.2,10.9c17.8-0.4,35.7-1.3,53.5-2c0.4-0.1,0.9-0.3,1.3-0.4c-0.4-0.1-0.9-0.3-1.3-0.4
		c-0.3-0.6-0.6-1.3-0.9-1.9C178,19.2,171.8,13.6,172.9,9z"/>
	<path class="st1" d="M63.6,300.3c1.4-5.9-1.7-6.9-6.7-6.7C42,294.2,27,295,12.1,294.8c-7.7-0.1-11.2,2.1-9.4,10.1
		c0.2,1,0.1,2.1,0.2,3.1c1.2,4.1-1.9,11.1,6.2,10.9c17.8-0.4,35.7-1.3,53.5-2c0.4-0.1,0.9-0.3,1.3-0.4c-0.4-0.1-0.9-0.3-1.3-0.4
		c-0.3-0.6-0.6-1.3-0.9-1.9C68.6,310.4,62.5,304.8,63.6,300.3z"/>
	<path class="st0" d="M70.6,184c0-1.7,0.1-3.4,0.1-5.1c-0.2,0-0.5,0-0.7,0c-1.3-0.1-2.6-0.3-3.9-0.3c-5.6,0-11.2,0.1-16.8,0.2
		c-7.9,0.1-15.8,0.3-23.7,0.3c-2.3,0-3.2,0.5-2.9,2.9c0.3,2.4-0.4,4.8,0.7,7.1c5.1,0.1,10.3,0.1,15.4,0.2c1.3-0.3,2.6-0.3,3.9-0.1
		c1.3,0.6,0.4,1.6,0.5,2.5c0,0.7-0.1,1.3-0.1,2c-0.6,12.9-1.2,25.8-1.7,38.7c-0.3,7.3,0.3,7.7,7.8,7.1c1.8-0.1,2.2-0.9,2.3-2.4
		c0.1-3.7,0.4-7.5,0.6-11.2c0.5-11.5,0.9-23,1.4-34.4c0.1-1.4,0-2.8,2-2.6l0,0c0.2,0.1,0.4,0.2,0.6,0.3c4,0,8,0,12,0l-0.1-0.3
		c0.5,0,1,0,1.5,0c0.4,0.1,0.8,0.2,1.3,0.3c1.1,0,2.2,0,3.3,0c0.7,0,1.3,0,2,0c3.1-0.1,6.2-0.1,9.2-0.2c1.8-1.1,0.2-3.2,1.2-4.6
		c-0.1-0.6-0.1-1.3-0.2-1.9c0.2-3.1-1.3-4.1-4.3-3.8c-3.7,0.3-7.5,0.2-11.2,0.3C70.7,180.6,70.6,182.3,70.6,184z M57.9,188.3
		L57.9,188.3L57.9,188.3z"/>
	<path class="st0" d="M262.8,294.9c1.1,5.6,2.3,11.1,3.4,16.7c0.4,0.7,0.7,1.5,1.1,2.2c2.4,1.1,4.4-5.2,6.9-0.3
		c7.3-4.5,7.8-7,4.4-20c-5.2-21.2-10.3-42.4-15.5-63.5c-1.4-5.7-2.8-11.5-4.2-17.2c2.8-1.3,5.9-0.6,8.8-0.8c3.5-0.2,5.2-1.8,4.5-5.3
		s-0.3-7,0.2-10.4c-3.9,1.2-7.7,1-11.4-0.5c-1.1,0.1-2.1,0.1-3.2,0.2c-4.7,0.4-9.3,0.8-14,1.2c-0.2,0-0.3,0-0.5-0.1
		c-5.3-0.8-8.4,0.3-9,6.8c-0.9,8.8-3.2,17.4-4.9,26.1c-1.8,8.1-3.6,16.1-5.3,24.2l-4.7,23.2c-1.3,8.5-1.3,8.5,6.7,10.3
		c7.3,1.6,7.2,1.6,8.8-5.5c0.5-2.2,1.1-4.4,1.7-6.6c-0.4-1.8,0.5-2.6,2.3-2.6c5.4-0.1,10.9-0.1,16.3-0.2c2.2,0,2.6,1.3,2.5,3.1
		C259.3,282.1,261,288.5,262.8,294.9 M240.5,254.8c1.7-8.5,3.5-17.1,5.5-26.8c2.3,8.6,4.2,16,6.1,23.3c0.2,1,0.4,2.1,0.6,3.1
		c0.3,0,0.3,0,0,0c0.9,3.6-4.5,3.2-7.2,3.2c-1.3,0-5.3,0-5.2-1.4C240.4,255.9,240.4,255.3,240.5,254.8z"/>
	<path class="st0" d="M37.3,256.4h0.2c0.9,0.4,1.8-0.1,2.7-0.2c0.4,0,0.8,0,1.2,0c1.1,0,2.3,0,3.4,0c0.2,0,0.3,0,0.5,0l0,0
		c0.9,0.2,1-0.3,1-1.1c-0.1-1.3,0-2.6,0-3.9c0-0.2,0-0.3-0.1-0.5c-0.3-0.1-0.6-0.1-1-0.2c-0.4,0-0.8,0-1.2,0l0,0
		c-0.1-0.1-0.2-0.1-0.3,0c-1.5,0-3.1-0.1-4.6-0.1c-0.6,0-1.3,0-1.9,0c-0.6,0.2-1.3,0.2-1.9,0.1c-0.4,0.2-0.8,0.1-1.2,0
		c-0.2,0-0.5,0.1-0.7,0.1c-0.1,0-0.3,0-0.4,0c-1.1,0.3-1.6,1-1.6,2.1c0,1.5,0,3,0,4.6l0,0c0,0.6,0,1.2,0,1.7
		c-0.2,4.8-0.4,9.6-0.5,14.4c0,2.2,0.8,2.8,3.1,2.7c0.4,0,0.9-0.1,1.3-0.1c2.8,0,5.6-0.2,8.4-0.5c2.5,0.1,2.5,0.1,2.5-2.3
		c0-0.8-0.2-1.6-0.2-2.4c0-0.9-0.5-1-1.2-1.1c-0.3,0-0.5,0-0.8,0c-0.1,0.1-0.3,0.1-0.4,0.2c-0.9,0-1.9,0-2.8,0
		c-1.3,0-2.8,0.8-3.7,0.1c-1-0.8-0.1-2.5-0.3-3.8c2.4,0,4.8-0.1,7.2-0.1c0.6,0,1.7,0.1,1.3-0.8c-0.6-1.6,0.8-3.5-0.7-4.9
		c-0.1-0.1-0.2,0-0.4,0c-2.2,0-4.3,0-6.5,0l0,0c-1,0-0.8-0.8-0.9-1.3c0.2-0.7,0.2-1.5,0-2.2c0-0.2,0.1-0.3,0.1-0.5L37.3,256.4z
		 M35.8,258.5c0.1,0,0.2,0.1,0.2,0.1C35.9,258.6,35.8,258.5,35.8,258.5L35.8,258.5z"/>
	<path class="st0" d="M261.2,30.7c-5-6.1-11-9.6-19.1-8.8c-3.2,0-6.3-3.1-9.5-0.2c-1.6,0.9-3.7,0.7-4.6,2.8l-0.1-0.1
		c-12.7,4.3-19.9,14.4-26.3,25.2c-1.3,5.4-2.6,10.9-3.8,16.3c-3.5,20.6-5.6,41.3-3.2,62.2c1.5,13.5,12,22.1,25.9,25.8
		c2.1,0.3,4.1,0.6,6.2,1l-0.2-0.5c3.3,0.3,6.6,1.3,9.6-1c2.8-0.4,6.1,0.7,7.9-2.6l0.1-0.1c11.6-1,15-10.4,19.3-18.8
		c0.3-0.9,0.5-1.8,0.8-2.7c0.3-1.9,0.7-3.7,1-5.6c0.1-0.8,0.2-1.6,0.2-2.4c-0.3-1.2-0.3-2.3,0.6-3.2c0.3-5.5,0.6-11.1,0.8-16.6
		c-7.5-0.5-15,0.8-22.4-0.6c-1.2,7.4-2.2,14.9-3.6,22.3c-1.4,7.7-7.8,8.4-13.6,7.8c-5.4-0.6-9.8-3.3-10.1-10.2
		c-0.8-15.1,1.1-30,2.7-44.9c0.8-7.6,1.9-15.2,6.1-21.8c-2.7-1.7-2.6-4-2.2-6.4c-0.4,2.4-0.5,4.7,2.2,6.4c4.5-5.4,9.5-9.6,17.2-8.9
		c1.6,5.5,3.3,10.9,4.9,16.4c0,2.3,0.2,4.6,0,6.9c-0.2,2-0.1,2.9,2.5,3.2c18.3,2.1,22.6-2.4,19-20.6c-0.1-0.7-0.5-1.4-0.7-2.1
		c-0.7-4-1.5-7.9-2.2-11.9C263.8,35.7,262.9,32.8,261.2,30.7z"/>
	<path class="st0" d="M155.2,202.1c-4.9-6-10.8-9.4-18.7-8.7c-3.1,0-6.2-3-9.3-0.2c-1.5,0.8-3.7,0.7-4.5,2.7l-0.1-0.1
		c-12.4,4.2-19.5,14.1-25.8,24.7c-1.3,5.3-2.5,10.7-3.8,16c-3.4,20.2-5.5,40.5-3.1,61c1.5,13.2,11.8,21.7,25.4,25.3
		c2,0.3,4,0.6,6,0.9l-0.2-0.5c3.2,0.3,6.5,1.3,9.4-1c2.7-0.4,6,0.7,7.8-2.6l0.1-0.1c11.4-0.9,14.7-10.2,19-18.5
		c0.3-0.9,0.5-1.8,0.8-2.6c0.3-1.8,0.7-3.6,1-5.5c0.1-0.8,0.2-1.6,0.2-2.3c-0.3-1.1-0.3-2.2,0.6-3.2c0.3-5.4,0.6-10.8,0.8-16.3
		c-7.3-0.5-14.7,0.8-22-0.6c-1.2,7.3-2.2,14.6-3.5,21.9c-1.4,7.5-7.7,8.2-13.3,7.7c-5.3-0.5-9.6-3.2-10-10
		c-0.8-14.8,1.1-29.4,2.7-44c0.8-7.4,1.8-14.9,5.9-21.4c-2.7-1.7-2.6-4-2.1-6.3c-0.4,2.3-0.5,4.6,2.1,6.3c4.4-5.3,9.4-9.4,16.9-8.7
		c1.6,5.3,3.2,10.7,4.8,16c0,2.3,0.2,4.5,0,6.8c-0.2,2-0.1,2.9,2.5,3.1c18,2.1,22.1-2.3,18.6-20.2c-0.1-0.7-0.5-1.4-0.7-2.1
		c-0.7-3.9-1.4-7.8-2.1-11.7C157.7,207,156.9,204.1,155.2,202.1z"/>
	<path class="st0" d="M444.8,39.3c-4.7-5.7-10.3-8.9-17.8-8.2c-3,0-5.9-2.9-8.9-0.1c-1.5,0.8-3.5,0.7-4.3,2.6l-0.1-0.1
		c-11.8,4-18.5,13.4-24.5,23.5c-1.2,5.1-2.4,10.1-3.6,15.2c-3.3,19.2-5.2,38.5-3,58c1.4,12.6,11.2,20.6,24.1,24
		c1.9,0.3,3.8,0.6,5.7,0.9l-0.2-0.5c3,0.2,6.1,1.2,8.9-1c2.6-0.4,5.7,0.6,7.4-2.4l0.1-0.1c10.8-0.9,13.9-9.7,18-17.5
		c0.2-0.8,0.5-1.7,0.8-2.5c0.3-1.7,0.6-3.5,1-5.2c0.1-0.7,0.2-1.5,0.2-2.2c-0.3-1.1-0.3-2.1,0.5-3c0.3-5.2,0.5-10.3,0.8-15.5
		c-6.9-0.5-13.9,0.7-20.9-0.5c-1.1,6.9-2.1,13.9-3.4,20.8c-1.3,7.1-7.3,7.8-12.7,7.3c-5-0.5-9.1-3.1-9.5-9.5
		c-0.7-14.1,1-27.9,2.5-41.8c0.8-7.1,1.7-14.1,5.6-20.3c-2.5-1.6-2.4-3.8-2-6c-0.4,2.2-0.5,4.3,2,6c4.2-5,8.9-9,16-8.2
		c1.5,5.1,3.1,10.2,4.6,15.2c0,2.1,0.2,4.3,0,6.4c-0.2,1.9-0.1,2.7,2.4,3c17.1,2,21-2.2,17.7-19.2c-0.1-0.7-0.4-1.3-0.7-2
		c-0.7-3.7-1.4-7.4-2-11.1C447.2,44,446.4,41.2,444.8,39.3z"/>
	<path class="st0" d="M365.2,98.7c-0.8-0.1-1.7-0.1-2.5-0.2c-3.6-0.8-5.2-2.5-4.9-6.7c0.9-12.1,1.1-24.3,1.5-36.5
		c0.1-2.7,0.5-4.8,3.5-5.5c7.6,0.1,7.6,0.1,7.5-8.5c-0.1-10.1-0.1-10.1-7.6-9.8l-0.4-0.4c-6.1,0.5-12.3,0.6-18.4,0.1
		c-0.2,0.1-0.3,0.3-0.3,0.5c-2.9-0.1-5.8,0-8.6-0.3c-5.7-0.5-9,1.4-7.7,7.8l-0.1,0.3v0.2c0.3,0.3,0.3,0.6-0.1,0.9
		c0.1,1.3,0.2,2.6,0.3,4c0.2,1.1,0.4,2.2,0.5,3.3c1.4,3.4,4.6,2.6,7.2,3.1c3.5-0.8,5.4-0.3,5,4.1c-0.6,6.5-0.6,13.1-0.9,19.6
		c0,2-0.1,4-0.1,6c0,1.4-0.1,2.8-0.1,4.1c-0.1,2.3-0.1,4.6-0.2,6.9c0,1.1,0,2.2,0,3.2c0,0.5-0.1,1.1-0.1,1.6c-2.8,1-5.7,0.5-8.5,0.5
		c-7.1,7-7.5,9.8-2.6,17.7c-0.1,0.3-0.1,0.7,0,1l0.1,0.1c2,0.1,4.1,0.3,6.1,0.4c8.6,0,17.2,0.2,25.8,0.1c0,0,3.8,0.2,4.7,0
		c0.9-0.2,3.2-0.5,3.4-3.1c0.2-2.6,0.7-12.1,0.3-13.1C367.7,99.2,366.8,98.9,365.2,98.7z"/>
	<path class="st0" d="M333.3,132.8c-2.5,0-5,0-7.4,0.1c-0.6,0-1.2,0-1.7,0c-0.2,0.7-0.4,1.4-0.6,2.1c-1-0.3-2.4,0.2-2.5-1.5
		c-0.9,0-1.8,0-2.6,0c-1.6,0-3.3,0.1-4.9,0.2c-4.3-0.4-8.8,2.3-12.8-1.1c0.1-0.8,0.1-1.6,0.2-2.5l0,0c0.5-8.3,1.9-16.5,1.4-24.8
		c-0.2,0.1-0.5,0.1-0.7,0.2c0.3-0.1,0.5-0.1,0.7-0.2c0-0.8,0.1-1.7,0.1-2.5c0.4-1.2,0.9-2.4,0.4-3.8c0.1-1.3,0.2-2.5,0.3-3.7l0,0
		c0.1-1.6,0.1-3.3,0.2-5l0.5,0.1c0-0.4,0.1-0.9,0.1-1.3c0-3.3-0.4-6.7,0.8-10c0.2-3.3,0.3-6.6,0.5-9.9c-0.1-3.7-0.3-7.5,0.7-11.2
		c0.1-0.8,0.2-1.6,0.2-2.4c0.1-2.5,0.2-5,0.2-7.5c0-0.8,0.1-1.6,0.1-2.4c0.1-2.1,0.3-4.1,0.4-6.2c-0.1-0.2-0.2-0.4-0.2-0.6
		c0.2-11.1-2.1-12.9-13.2-10.2c-1.5,0.4-3.2,0.4-4.8,0.7c-0.4,4.1-0.8,8.2-1.2,12.3c-0.8,10-1.5,20.1-2.2,30.1
		c0.6,1.7,0.3,3.3-0.2,4.9c0,0.4,0,0.8-0.1,1.2c-0.8,16.1-1.5,32.2-2.3,48.4c0,4.6-1.4,9.1-0.7,13.7c-0.1,0.8-0.2,1.6-0.2,2.4
		c-0.1,2.6-0.2,5.2-0.4,7.7c-0.3,3.8,1.2,5.2,4.9,3.8c9.3,2.3,18.2-1.7,27.4-1.5c1.2-0.1,2.4-0.1,3.6-0.2c0-0.2,0-0.5,0-0.7
		c0,0.2,0,0.5,0,0.7c5.4,0.2,10.9,0.2,16.2-1l0,0c0.4,0,0.8-0.1,1.2-0.1V151c-0.4-1.4,0.8-3.3-1.1-4.3c1.7,0,1.1-1,0.8-1.9
		c0.4-0.4,0.9-0.8,1.4-1.3c-0.3-0.5-0.6-0.9-0.9-1.4c0.1-1.6,0.1-3.1,0.2-4.7c-0.6-0.9-0.5-1.9-0.2-2.8
		C334.3,134.2,333.8,133.5,333.3,132.8z M316.7,148.5c0.2,0.3,0.3,0.6,0.4,0.9C317,149.1,316.9,148.8,316.7,148.5z M333.5,146.9
		L333.5,146.9c-0.4-0.8-0.3-1.4,0.5-1.8C333.2,145.5,333.1,146.1,333.5,146.9z"/>
	<path class="st0" d="M229.3,299.4c-2.5,0-5,0-7.4,0.1c-0.6,0-1.2,0-1.7,0c-0.2,0.7-0.4,1.4-0.6,2.1c-1-0.3-2.4,0.2-2.5-1.5
		c-0.9,0-1.8,0-2.6,0c-1.6,0-3.3,0.1-4.9,0.2c-4.3-0.5-8.8,2.3-12.8-1.1c0.1-0.8,0.1-1.6,0.2-2.5l0,0c0.5-8.3,1.9-16.5,1.4-24.8
		c-0.2,0.1-0.5,0.1-0.7,0.2c0.3-0.1,0.5-0.1,0.7-0.2c0-0.8,0.1-1.7,0.1-2.5c0.4-1.2,0.9-2.5,0.4-3.8c0.1-1.2,0.2-2.5,0.3-3.7l0,0
		c0.1-1.6,0.1-3.3,0.2-5l0.5,0.1c0-0.4,0.1-0.8,0.1-1.3c0-3.3-0.4-6.7,0.8-10c0.2-3.3,0.3-6.6,0.5-9.9c-0.1-3.8-0.4-7.5,0.7-11.2
		c0.1-0.8,0.2-1.6,0.2-2.4c0.1-2.5,0.2-5,0.3-7.5c0-0.8,0.1-1.6,0.1-2.4c0.1-2.1,0.3-4.1,0.4-6.2c-0.1-0.2-0.2-0.4-0.2-0.6
		c0.2-11.1-2.1-12.9-13.2-10.2c-1.5,0.4-3.2,0.4-4.8,0.7c-0.4,4.1-0.8,8.2-1.2,12.3c-0.8,10-1.5,20.1-2.2,30.1
		c0.6,1.7,0.3,3.3-0.2,4.9c0,0.4,0,0.8-0.1,1.2c-0.8,16.1-1.5,32.2-2.3,48.4c0,4.6-1.4,9.1-0.7,13.7c-0.1,0.8-0.1,1.6-0.2,2.4
		c-0.1,2.6-0.2,5.2-0.4,7.7c-0.3,3.8,1.2,5.2,4.9,3.8c9.3,2.3,18.2-1.7,27.4-1.5c1.2,0,2.4-0.1,3.6-0.2c0-0.2,0-0.5,0-0.7
		c0,0.2,0,0.5,0,0.7c5.4,0.2,10.9,0.2,16.2-1l0,0c0.4,0,0.8-0.1,1.2-0.1v-0.1c-0.4-1.4,0.8-3.3-1.1-4.3c1.7,0,1.1-1,0.8-1.9
		c0.4-0.4,0.9-0.8,1.4-1.3c-0.3-0.4-0.6-0.9-0.9-1.3c0.1-1.6,0.1-3.1,0.2-4.7c-0.6-0.9-0.5-1.9-0.2-2.8
		C230.3,300.9,229.8,300.2,229.3,299.4z M212.7,315.1c0.2,0.3,0.3,0.6,0.4,0.9C213,315.7,212.9,315.4,212.7,315.1z M229.4,313.6
		L229.4,313.6c-0.4-0.8-0.3-1.4,0.5-1.8C229.1,312.1,229,312.7,229.4,313.6z"/>
	<path class="st0" d="M27.2,268c0.1-1.5,0.2-9.5,0.2-9.5c0.1-6.4-2.9-8.4-7.7-9.1c-2-0.7-4-0.2-6-0.2c-0.6,0-1.2,0.1-1.1-0.8
		c0.3-1.5-0.6-1.6-1.7-1.5c-3.3,0-3.3,0-3.5,3.3c0,0.3,0,0.6,0,0.8c-0.1,3-0.2,6.1-0.3,9.1c0.1,1.4,0,2.7-0.2,4.1
		c0.1,1.9,0.1,3.8-0.1,5.7c0,0.3,0,0.7,0,1c0,0.1,0.1,0.2,0.1,0.3c0.1,0.1,0.2,0.1,0.4,0.2c-0.1-0.1-0.3-0.1-0.4-0.2
		c0,0.1-0.1,0.2-0.1,0.3c0,0.1,0.1,0.2,0.1,0.3c0,0.2-0.1,0.4-0.1,0.7c0,1.8,0,3.6,0.1,5.4c0.1,1,0.8,1.1,1.7,1.1
		c3.7,0.1,7.5-0.1,11.2-0.4c1.8-0.7,3.4-1.6,4.7-3.1c0.3-0.4,0.5-0.9,0.8-1.3C26.5,272.6,27,269.4,27.2,268z M21.7,258.6
		c0,0,0,1.1,0,1.3c0,0.3-0.4,8-0.4,8c0,0.3,0,0.7,0,1c0.4,0.8-0.2,1.5-0.3,2.3c-0.2,0.2-0.5,0.3-0.4,0.6c-1,1.5-2.6,1.8-4.2,2
		c-1.5,0.1-3,0.1-4.5,0.1c0.1-0.1,0-0.2-0.1-0.3c0.1-0.5,0.1-0.9,0.2-1.4c-0.1-1.8,0-3.6,0.2-5.4c0,0,0-2.2,0.1-2.5s0-1.3,0-1.4
		s0.2-1.1,0.2-1.2s0-0.9,0-0.9c-0.7-0.6-0.2-1.4-0.3-2.1c0-0.3,0-0.6,0-0.9c0-0.8,0.1-1.6,0.1-2.4c-0.3-0.6-0.2-1.1,0.6-1.1
		c2.2,0,4.3-0.5,6.5,0.1c0,0.1,0.1,0.2,0.1,0.3c1.1,0.1,1.9,0.6,2,1.7v2.2L21.7,258.6L21.7,258.6z"/>
	<path class="st0" d="M299.6,293.5c2.5,0,2.2-1.1,2.2-2.6s0.3-3.9,0.6-7.1c0.3-3.2,0-6.2,0-6.2c0.2-0.3,0.1-0.6-0.2-0.8
		c0.2-1.4,0.3-2.7,0.5-4.1c-0.4-5.5,0.1-10.9,0.6-16.4c-0.8-2.2,1.2-1.5,2-2c0.3,0.2,0.7,0.4,1,0.5c2.7-0.2,5.4-0.5,8.1-0.7
		c2,0,4.1-0.1,6.1-0.1c0.2-0.2,0.4-0.3,0.6-0.5c-0.2,0.1-0.4,0.3-0.6,0.5c13-1.3,22.2-13.1,22.2-13.1c2.2-2.6,3.9-6.2,4.4-9.5
		c2.5-18-7-26.2-21.5-28.1c-6-2-12.1-0.5-18.1-0.5c-1.8,0-3.8,0.2-3.3-2.4c0.8-4.6-1.9-4.7-5.3-4.7c-9.9,0.1-9.9,0.1-10.5,10.1
		c0,0.8,0.1,1.7,0.1,2.5c-0.3,9.2-0.6,18.4-1,27.5c0.3,4.1,0.1,8.3-0.6,12.3c0.2,5.8,0.3,11.5-0.3,17.3c0,1-0.1,2-0.1,3.1
		c0.1,0.3,0.2,0.7,0.3,1c0.3,0.3,0.8,0.5,1.2,0.6c-0.4-0.2-0.9-0.4-1.2-0.6c-0.1,0.3-0.3,0.7-0.4,1c0.1,0.3,0.2,0.7,0.3,1
		c-0.1,0.7-0.2,1.3-0.4,2c0.1,5.5,0.1,10.9,0.2,16.4c0.4,3.1,2.5,3.3,5.1,3.4C292,293.5,297.1,293.5,299.6,293.5z M325.4,252.5
		c-0.3,0-0.6,0-0.9,0C324.8,252.5,325.1,252.5,325.4,252.5z M325.9,219.4c3.2,0.2,5.8,1.8,5.9,5c0.2,4.1-1.1,7.8-5.2,10.1
		c-7.1,3.9-14.9,2.1-22.3,3.6c-2.1-1.9-0.5-4.3-0.8-6.5c0-0.9,0.1-1.8,0.1-2.7c0.1-2.4,0.3-4.8,0.4-7.2c-0.7-1.9-0.6-3.4,2-3.4
		c6.5,0,13.1-1.5,19.6,0.3C325.7,218.9,325.8,219.1,325.9,219.4z"/>
	<g>
		<path class="st0" d="M67.3,264.1c-0.5-0.8-1.1-1.6-1.6-2.4c-1.9-2-4.3-3.4-6.7-4.8c-0.6-0.3-1.1-0.7-1.6-1
			c-0.6-0.4-1.4-1.1-1.1-1.8c0.3-1,0.7-2.2,2-2.4c1-0.2,2.1-0.3,2.9,0.6c0.5,0.5,0.3,1,0.3,1.6c0,1-0.7,2.8,1.6,1.9
			c0.1,0,0.4,0.2,0.6,0.3c1.2,0.1,2.7,0.8,3.2-1.1c0.1-0.4,0.1-0.9,0.2-1.4c0-0.2,0-0.5,0-0.7c-0.2-2.7-1.5-4.7-3.9-5.9
			c-2.1-1.2-4.3-0.7-6.5-0.4c-2.4,0.3-3.9,2.2-4.8,4.5l0,0c-0.4,0.6-0.5,1.2-0.5,1.8c-0.6,1.2-0.3,2.5,0.2,3.7
			c1,2.8,3.5,4.2,5.9,5.5c1.5,0.8,2.9,1.6,4.1,2.8c1.6,1.7,2.2,3.6,1.5,5.8c-0.7,2.1-2.3,3.1-4.4,3.2c-1.8,0.2-3.5,0.3-5.3,0.4
			c-0.9,0.1-1.5,0.3-1.2,1.5c0.2,1.2,0.1,2.4,0.1,3.6c1.8,0.5,3.6-0.2,5.5,0c1.9-0.5,3.9-0.4,5.6-1.4c4.7-2.6,6.7-8.2,4.6-13.1
			C67.6,264.8,67.4,264.5,67.3,264.1z"/>
	</g>
	<g>
		<path class="st0" d="M396,216c-2-3-4.1-6-6.1-9c-7.4-7.6-16.4-12.9-25.5-18c-2.1-1.2-4.1-2.6-6-4c-2.3-1.7-5.1-4.1-4.3-6.7
			c1.2-3.6,2.6-8.2,7.4-9.1c3.9-0.7,7.9-1,11,2.2c1.8,1.8,1.2,3.8,1.1,6c-0.1,3.9-2.6,10.5,6.1,7.4c0.5-0.2,1.5,0.8,2.2,1.2
			c4.7,0.4,10.1,3.1,12.1-4.2c0.2-1.7,0.4-3.4,0.7-5.1c0-0.9-0.1-1.8-0.1-2.6c-0.7-10.3-5.6-17.8-14.8-22.6
			c-7.9-4.4-16.5-2.8-24.5-1.7c-9.2,1.3-14.7,8.5-18.2,17L337,167c-1.5,2.1-1.8,4.5-2,7c-2.2,4.7-1,9.3,0.7,13.9
			c3.9,10.8,13.2,15.8,22.4,21c5.5,3.1,11,6.1,15.5,10.8c6.1,6.4,8.4,13.6,5.5,22.2c-2.7,8-8.7,11.6-16.8,12.3
			c-6.7,0.6-13.5,1.1-20.2,1.7c-3.5,0.3-5.5,1.1-4.5,5.6c0.9,4.4,0.4,9.1,0.5,13.7c6.9,2,13.9-0.8,20.8,0.2
			c7.1-1.7,14.7-1.5,21.4-5.2c17.7-9.8,25.3-31,17.5-49.8C397.1,218.8,396.5,217.4,396,216z"/>
	</g>
</g>
</svg>
