<?xml version="1.0" encoding="utf-8"?>
<!-- Generator: Adobe Illustrator 27.9.4, SVG Export Plug-In . SVG Version: 9.03 Build 54784)  -->
<svg version="1.1" id="Calque_1" xmlns="http://www.w3.org/2000/svg" xmlns:xlink="http://www.w3.org/1999/xlink" x="0px" y="0px"
	 viewBox="0 0 595.3 841.9" style="enable-background:new 0 0 595.3 841.9;" xml:space="preserve">
<style type="text/css">
	.st0{fill:#E52322;}
	.st1{fill:#3F245C;}
	.st2{fill:#F3953F;}
</style>
<g>
	<path class="st0" d="M87.4,434.9l0.3-0.1c1.6,0.6,3.1-0.2,4.7-0.4c0.7,0,1.3,0,2,0c2,0,4,0,6-0.1c0.3,0,0.5,0,0.8,0l0,0
		c1.6,0.3,1.7-0.5,1.7-1.9c-0.1-2.2,0-4.5,0-6.7c0-0.3-0.1-0.6-0.1-0.9c-0.6-0.1-1.1-0.2-1.7-0.3c-0.7,0-1.4,0-2.1,0l0,0
		c-0.2-0.1-0.4-0.1-0.5,0c-2.7-0.1-5.4-0.1-8-0.2c-1.1,0-2.2,0.1-3.3,0.1c-1.1,0.3-2.2,0.4-3.3,0.1c-0.7,0.3-1.3,0.2-2,0
		c-0.4,0.1-0.8,0.1-1.2,0.2c-0.2,0-0.4,0-0.7,0c-1.9,0.5-2.7,1.7-2.7,3.6c0,2.6,0,5.3,0,7.9l0,0c0,1,0,2-0.1,3
		c-0.3,8.3-0.8,16.7-0.9,25c-0.1,3.8,1.3,4.8,5.3,4.7c0.8,0,1.5-0.1,2.3-0.2c4.9,0,9.8-0.3,14.6-0.8c4.4,0.1,4.4,0.1,4.3-4.1
		c0-1.4-0.4-2.8-0.3-4.2c0.1-1.6-0.9-1.7-2-1.8c-0.4,0-0.9,0-1.3,0c-0.2,0.1-0.5,0.2-0.7,0.3c-1.6,0-3.3,0-4.9,0
		c-2.2,0-4.9,1.4-6.4,0.1c-1.7-1.4-0.2-4.3-0.5-6.6c4.2-0.1,8.4-0.1,12.5-0.2c1,0,2.9,0.2,2.3-1.3c-1.1-2.8,1.4-6-1.1-8.5
		c-0.1-0.1-0.4,0-0.6,0c-3.7,0-7.5,0-11.2,0l0,0c-1.7,0-1.3-1.3-1.5-2.3c0.3-1.3,0.4-2.6,0-3.9c0.1-0.3,0.1-0.6,0.2-0.8L87.4,434.9z
		 M84.7,438.6c0.1,0.1,0.3,0.2,0.4,0.2C85,438.8,84.8,438.6,84.7,438.6L84.7,438.6z"/>
	<path class="st1" d="M206.8,300.9l0.8-0.2c4.2,1.6,8.1-0.6,12.1-1.1c1.7,0,3.5-0.1,5.2-0.1c5.1-0.1,10.2-0.1,15.3-0.2
		c0.7,0,1.4,0,2.1,0l0,0c4,0.7,4.5-1.4,4.3-4.8c-0.3-5.7,0-11.5,0-17.2c-0.1-0.8-0.1-1.5-0.2-2.3c-1.4-0.3-2.9-0.5-4.3-0.7
		c-1.8,0-3.6,0-5.5,0l0,0c-0.5-0.3-0.9-0.3-1.4,0c-6.9-0.1-13.8-0.3-20.7-0.4c-2.9,0.1-5.7,0.1-8.6,0.2c-2.8,0.9-5.7,1-8.5,0.2
		c-1.7,0.9-3.5,0.6-5.2,0.1c-1,0.2-2.1,0.3-3.1,0.5c-0.6,0-1.1,0.1-1.7,0.1c-4.8,1.2-7,4.5-7,9.3c0,6.8-0.1,13.6-0.1,20.4l0,0
		c-0.1,2.6-0.1,5.2-0.2,7.8c-0.8,21.5-2,43-2.3,64.5c-0.2,9.8,3.4,12.3,13.8,12.2c2,0,3.9-0.3,5.9-0.4c12.6,0,25.1-0.8,37.7-2.2
		c11.3,0.4,11.3,0.4,11.1-10.5c-0.1-3.6-0.9-7.3-0.8-10.9c0.2-4.1-2.2-4.5-5.2-4.7c-1.1,0-2.3,0-3.4,0c-0.6,0.3-1.2,0.5-1.8,0.8
		c-4.2,0-8.5,0-12.7,0c-5.6,0-12.7,3.5-16.5,0.3c-4.3-3.7-0.5-11.2-1.3-17c10.8-0.2,21.5-0.3,32.3-0.6c2.5-0.1,7.5,0.6,6-3.4
		c-2.8-7.3,3.6-15.5-2.9-21.9c-0.3-0.3-1.1-0.1-1.7-0.1c-9.6,0-19.3,0-28.9,0.1l0,0c-4.5,0.1-3.4-3.4-3.8-5.9
		c0.7-3.3,0.9-6.7,0.1-10c0.1-0.7,0.3-1.4,0.4-2.1L206.8,300.9z M199.7,310.2c0.4,0.2,0.8,0.5,1.1,0.5
		C200.5,310.7,200.1,310.4,199.7,310.2L199.7,310.2z"/>
	<path class="st1" d="M161.8,346.8c0.5-6.1,0.9-39.9,0.9-39.9c0.5-26.9-12.2-35.5-32.5-38.1c-8.3-2.8-16.8-0.7-25.2-0.7
		c-2.4,0-5.2,0.3-4.6-3.3c1.1-6.4-2.6-6.6-7.3-6.5c-13.8,0.2-13.8,0.1-14.5,14c-0.1,1.2,0.1,2.3,0.1,3.5
		c-0.4,12.8-0.9,25.5-1.3,38.3c0.4,5.8,0.2,11.5-0.8,17.2c0.3,8,0.4,16-0.4,24c0,1.4-0.1,2.8-0.1,4.2c0.2,0.5,0.3,1,0.5,1.4
		c0.4,0.4,1.1,0.6,1.7,0.9c-0.6-0.3-1.2-0.5-1.7-0.9c-0.2,0.5-0.4,1-0.6,1.4c0.2,0.5,0.3,1,0.5,1.4c-0.2,0.9-0.3,1.9-0.5,2.8
		c0.1,7.6,0.2,15.2,0.3,22.8c0.5,4.4,3.5,4.7,7.1,4.8c15.7,0.4,31.4-0.5,47-1.9c7.6-2.7,14.5-6.7,19.8-12.9c1.1-1.8,2-3.6,3.3-5.3
		C159.2,366.1,161.3,352.9,161.8,346.8z M138.8,307.3c0,0,0.1,4.6,0,5.7c-0.1,1.1-1.5,33.8-1.5,33.8c0,1.4,0.1,2.8,0.1,4.1
		c1.6,3.5-0.8,6.4-1.2,9.6c-0.8,0.8-1.9,1.3-1.9,2.7c-4.3,6.2-10.8,7.8-17.6,8.3c-6.3,0.5-12.6,0.4-18.9,0.5
		c0.2-0.4,0.2-0.8-0.2-1.1c0.2-1.9,0.4-3.8,0.7-5.7c-0.6-7.6,0.1-15.2,0.9-22.8c0,0-0.1-9.2,0.4-10.5c0.4-1.3,0.1-5.4,0-5.7
		c-0.1-0.4,0.8-4.7,0.9-5.2c0.1-0.4,0.1-4,0.1-4c-2.9-2.7-0.7-6-1.2-9c0-1.2,0.1-2.5,0.1-3.7c0.2-3.3,0.4-6.7,0.6-10
		c-1-2.7-0.8-4.7,2.7-4.7c9.1,0,18.2-2.1,27.3,0.3c0.2,0.4,0.3,0.7,0.4,1.1c4.5,0.3,8.1,2.5,8.3,7V307.3z"/>
	<path class="st2" d="M466.4,530.1c1.4-5.9-1.7-6.9-6.7-6.7c-14.9,0.6-29.8,1.4-44.8,1.2c-7.7-0.1-11.2,2.1-9.4,10.1
		c0.2,1,0.1,2.1,0.2,3.1c1.2,4.1-1.9,11.1,6.2,10.9c17.8-0.4,35.7-1.3,53.5-2c0.4-0.1,0.9-0.3,1.3-0.4c-0.4-0.1-0.9-0.3-1.3-0.4
		c-0.3-0.6-0.6-1.3-0.9-1.9C471.5,540.2,465.3,534.6,466.4,530.1z"/>
	<path class="st2" d="M242.1,238.8c1.4-5.9-1.7-6.9-6.7-6.7c-14.9,0.6-29.9,1.4-44.8,1.2c-7.7-0.1-11.2,2.1-9.4,10.1
		c0.2,1,0.1,2.1,0.2,3.1c1.2,4.1-1.9,11.1,6.2,10.9c17.8-0.4,35.7-1.3,53.5-2c0.4-0.1,0.9-0.3,1.3-0.4c-0.4-0.1-0.9-0.3-1.3-0.4
		c-0.3-0.6-0.6-1.3-0.9-1.9C247.2,249,241,243.4,242.1,238.8z"/>
	<path class="st2" d="M132.8,530.1c1.4-5.9-1.7-6.9-6.7-6.7c-14.9,0.6-29.9,1.4-44.8,1.2c-7.7-0.1-11.2,2.1-9.4,10.1
		c0.2,1,0.1,2.1,0.2,3.1c1.2,4.1-1.9,11.1,6.2,10.9c17.8-0.4,35.7-1.3,53.5-2c0.4-0.1,0.9-0.3,1.3-0.4c-0.4-0.1-0.9-0.3-1.3-0.4
		c-0.3-0.6-0.6-1.3-0.9-1.9C137.8,540.2,131.7,534.6,132.8,530.1z"/>
	<path class="st0" d="M139.8,413.8c0-1.7,0.1-3.4,0.1-5.1c-0.2,0-0.5,0-0.7,0c-1.3-0.1-2.6-0.3-3.9-0.3c-5.6,0-11.2,0.1-16.8,0.2
		c-7.9,0.1-15.8,0.3-23.7,0.3c-2.3,0-3.2,0.5-2.9,2.9c0.3,2.4-0.4,4.8,0.7,7.1c5.1,0.1,10.3,0.1,15.4,0.2c1.3-0.3,2.6-0.3,3.9-0.1
		c1.3,0.6,0.4,1.6,0.5,2.5c0,0.7-0.1,1.3-0.1,2c-0.6,12.9-1.2,25.8-1.7,38.7c-0.3,7.3,0.3,7.7,7.8,7.1c1.8-0.1,2.2-0.9,2.3-2.4
		c0.1-3.7,0.4-7.5,0.6-11.2c0.5-11.5,0.9-23,1.4-34.4c0.1-1.4,0-2.8,2-2.6l0,0c0.2,0.1,0.4,0.2,0.6,0.3c4,0,8,0,12,0l-0.1-0.3
		c0.5,0,1,0,1.5,0c0.4,0.1,0.8,0.2,1.3,0.3c1.1,0,2.2,0,3.3,0c0.7,0,1.3,0,2,0c3.1-0.1,6.2-0.1,9.2-0.2c1.8-1.1,0.2-3.2,1.2-4.6
		c-0.1-0.6-0.1-1.3-0.2-1.9c0.2-3.1-1.3-4.1-4.3-3.8c-3.7,0.3-7.5,0.2-11.2,0.3C139.9,410.4,139.8,412.1,139.8,413.8z M127.1,418.1
		C127.1,418.1,127.1,418.1,127.1,418.1C127.1,418.1,127.1,418.1,127.1,418.1z"/>
	<path class="st0" d="M332,524.7c1.1,5.6,2.3,11.1,3.4,16.7c0.4,0.7,0.7,1.5,1.1,2.2c2.4,1.1,4.4-5.2,6.9-0.3c7.3-4.5,7.8-7,4.4-20
		c-5.2-21.2-10.3-42.4-15.5-63.5c-1.4-5.7-2.8-11.5-4.2-17.2c2.8-1.3,5.9-0.6,8.8-0.8c3.5-0.2,5.2-1.8,4.5-5.3
		c-0.7-3.5-0.3-7,0.2-10.4c-3.9,1.2-7.7,1-11.4-0.5c-1.1,0.1-2.1,0.1-3.2,0.2c-4.7,0.4-9.3,0.8-14,1.2c-0.2,0-0.3,0-0.5-0.1
		c-5.3-0.8-8.4,0.3-9,6.8c-0.9,8.8-3.2,17.4-4.9,26.1c-1.8,8.1-3.6,16.1-5.3,24.2l-4.7,23.2c-1.3,8.5-1.3,8.5,6.7,10.3
		c7.3,1.6,7.2,1.6,8.8-5.5c0.5-2.2,1.1-4.4,1.7-6.6c-0.4-1.8,0.5-2.6,2.3-2.6c5.4-0.1,10.9-0.1,16.3-0.2c2.2,0,2.6,1.3,2.5,3.1
		C328.5,511.9,330.2,518.3,332,524.7 M309.7,484.6c1.7-8.5,3.5-17.1,5.5-26.8c2.3,8.6,4.2,16,6.1,23.3c0.2,1,0.4,2.1,0.6,3.1
		c0.3,0,0.3,0,0,0c0.9,3.6-4.5,3.2-7.2,3.2c-1.3,0-5.3,0-5.2-1.4C309.6,485.7,309.6,485.1,309.7,484.6z"/>
	<path class="st1" d="M106.5,486.2l0.2,0c0.9,0.4,1.8-0.1,2.7-0.2c0.4,0,0.8,0,1.2,0c1.1,0,2.3,0,3.4,0c0.2,0,0.3,0,0.5,0l0,0
		c0.9,0.2,1-0.3,1-1.1c-0.1-1.3,0-2.6,0-3.9c0-0.2,0-0.3-0.1-0.5c-0.3-0.1-0.6-0.1-1-0.2c-0.4,0-0.8,0-1.2,0l0,0
		c-0.1-0.1-0.2-0.1-0.3,0c-1.5,0-3.1-0.1-4.6-0.1c-0.6,0-1.3,0-1.9,0c-0.6,0.2-1.3,0.2-1.9,0.1c-0.4,0.2-0.8,0.1-1.2,0
		c-0.2,0-0.5,0.1-0.7,0.1c-0.1,0-0.3,0-0.4,0c-1.1,0.3-1.6,1-1.6,2.1c0,1.5,0,3,0,4.6l0,0c0,0.6,0,1.2,0,1.7
		c-0.2,4.8-0.4,9.6-0.5,14.4c0,2.2,0.8,2.8,3.1,2.7c0.4,0,0.9-0.1,1.3-0.1c2.8,0,5.6-0.2,8.4-0.5c2.5,0.1,2.5,0.1,2.5-2.3
		c0-0.8-0.2-1.6-0.2-2.4c0-0.9-0.5-1-1.2-1.1c-0.3,0-0.5,0-0.8,0c-0.1,0.1-0.3,0.1-0.4,0.2c-0.9,0-1.9,0-2.8,0
		c-1.3,0-2.8,0.8-3.7,0.1c-1-0.8-0.1-2.5-0.3-3.8c2.4,0,4.8-0.1,7.2-0.1c0.6,0,1.7,0.1,1.3-0.8c-0.6-1.6,0.8-3.5-0.7-4.9
		c-0.1-0.1-0.2,0-0.4,0c-2.2,0-4.3,0-6.5,0l0,0c-1,0-0.8-0.8-0.9-1.3c0.2-0.7,0.2-1.5,0-2.2c0-0.2,0.1-0.3,0.1-0.5L106.5,486.2z
		 M105,488.3c0.1,0,0.2,0.1,0.2,0.1C105.1,488.4,105,488.3,105,488.3L105,488.3z"/>
	<path class="st1" d="M330.4,260.5c-5-6.1-11-9.6-19.1-8.8c-3.2,0-6.3-3.1-9.5-0.2c-1.6,0.9-3.7,0.7-4.6,2.8l-0.1-0.1
		c-12.7,4.3-19.9,14.4-26.3,25.2c-1.3,5.4-2.6,10.9-3.8,16.3c-3.5,20.6-5.6,41.3-3.2,62.2c1.5,13.5,12,22.1,25.9,25.8
		c2.1,0.3,4.1,0.6,6.2,1l-0.2-0.5c3.3,0.3,6.6,1.3,9.6-1c2.8-0.4,6.1,0.7,7.9-2.6c0,0,0.1-0.1,0.1-0.1c11.6-1,15-10.4,19.3-18.8
		c0.3-0.9,0.5-1.8,0.8-2.7c0.3-1.9,0.7-3.7,1-5.6c0.1-0.8,0.2-1.6,0.2-2.4c-0.3-1.2-0.3-2.3,0.6-3.2c0.3-5.5,0.6-11.1,0.8-16.6
		c-7.5-0.5-15,0.8-22.4-0.6c-1.2,7.4-2.2,14.9-3.6,22.3c-1.4,7.7-7.8,8.4-13.6,7.8c-5.4-0.6-9.8-3.3-10.1-10.2
		c-0.8-15.1,1.1-30,2.7-44.9c0.8-7.6,1.9-15.2,6.1-21.8c-2.7-1.7-2.6-4-2.2-6.4c-0.4,2.4-0.5,4.7,2.2,6.4c4.5-5.4,9.5-9.6,17.2-8.9
		c1.6,5.5,3.3,10.9,4.9,16.4c0,2.3,0.2,4.6,0,6.9c-0.2,2-0.1,2.9,2.5,3.2c18.3,2.1,22.6-2.4,19-20.6c-0.1-0.7-0.5-1.4-0.7-2.1
		c-0.7-4-1.5-7.9-2.2-11.9C333,265.5,332.1,262.6,330.4,260.5z"/>
	<path class="st0" d="M224.4,431.9c-4.9-6-10.8-9.4-18.7-8.7c-3.1,0-6.2-3-9.3-0.2c-1.5,0.8-3.7,0.7-4.5,2.7l-0.1-0.1
		c-12.4,4.2-19.5,14.1-25.8,24.7c-1.3,5.3-2.5,10.7-3.8,16c-3.4,20.2-5.5,40.5-3.1,61c1.5,13.2,11.8,21.7,25.4,25.3
		c2,0.3,4,0.6,6,0.9l-0.2-0.5c3.2,0.3,6.5,1.3,9.4-1c2.7-0.4,6,0.7,7.8-2.6c0,0,0.1-0.1,0.1-0.1c11.4-0.9,14.7-10.2,19-18.5
		c0.3-0.9,0.5-1.8,0.8-2.6c0.3-1.8,0.7-3.6,1-5.5c0.1-0.8,0.2-1.6,0.2-2.3c-0.3-1.1-0.3-2.2,0.6-3.2c0.3-5.4,0.6-10.8,0.8-16.3
		c-7.3-0.5-14.7,0.8-22-0.6c-1.2,7.3-2.2,14.6-3.5,21.9c-1.4,7.5-7.7,8.2-13.3,7.7c-5.3-0.5-9.6-3.2-10-10
		c-0.8-14.8,1.1-29.4,2.7-44c0.8-7.4,1.8-14.9,5.9-21.4c-2.7-1.7-2.6-4-2.1-6.3c-0.4,2.3-0.5,4.6,2.1,6.3c4.4-5.3,9.4-9.4,16.9-8.7
		c1.6,5.3,3.2,10.7,4.8,16c0,2.3,0.2,4.5,0,6.8c-0.2,2-0.1,2.9,2.5,3.1c18,2.1,22.1-2.3,18.6-20.2c-0.1-0.7-0.5-1.4-0.7-2.1
		c-0.7-3.9-1.4-7.8-2.1-11.7C226.9,436.8,226.1,433.9,224.4,431.9z"/>
	<path class="st1" d="M514,269.1c-4.7-5.7-10.3-8.9-17.8-8.2c-3,0-5.9-2.9-8.9-0.1c-1.5,0.8-3.5,0.7-4.3,2.6l-0.1-0.1
		c-11.8,4-18.5,13.4-24.5,23.5c-1.2,5.1-2.4,10.1-3.6,15.2c-3.3,19.2-5.2,38.5-3,58c1.4,12.6,11.2,20.6,24.1,24
		c1.9,0.3,3.8,0.6,5.7,0.9l-0.2-0.5c3,0.2,6.1,1.2,8.9-1c2.6-0.4,5.7,0.6,7.4-2.4c0,0,0.1-0.1,0.1-0.1c10.8-0.9,13.9-9.7,18-17.5
		c0.2-0.8,0.5-1.7,0.8-2.5c0.3-1.7,0.6-3.5,1-5.2c0.1-0.7,0.2-1.5,0.2-2.2c-0.3-1.1-0.3-2.1,0.5-3c0.3-5.2,0.5-10.3,0.8-15.5
		c-6.9-0.5-13.9,0.7-20.9-0.5c-1.1,6.9-2.1,13.9-3.4,20.8c-1.3,7.1-7.3,7.8-12.7,7.3c-5-0.5-9.1-3.1-9.5-9.5
		c-0.7-14.1,1-27.9,2.5-41.8c0.8-7.1,1.7-14.1,5.6-20.3c-2.5-1.6-2.4-3.8-2-6c-0.4,2.2-0.5,4.3,2,6c4.2-5,8.9-9,16-8.2
		c1.5,5.1,3.1,10.2,4.6,15.2c0,2.1,0.2,4.3,0,6.4c-0.2,1.9-0.1,2.7,2.4,3c17.1,2,21-2.2,17.7-19.2c-0.1-0.7-0.4-1.3-0.7-2
		c-0.7-3.7-1.4-7.4-2-11.1C516.4,273.8,515.6,271,514,269.1z"/>
	<path class="st1" d="M434.4,328.5c-0.8-0.1-1.7-0.1-2.5-0.2c-3.6-0.8-5.2-2.5-4.9-6.7c0.9-12.1,1.1-24.3,1.5-36.5
		c0.1-2.7,0.5-4.8,3.5-5.5c7.6,0.1,7.6,0.1,7.5-8.5c-0.1-10.1-0.1-10.1-7.6-9.8c0,0-0.4-0.4-0.4-0.4c-6.1,0.5-12.3,0.6-18.4,0.1
		c-0.2,0.1-0.3,0.3-0.3,0.5c-2.9-0.1-5.8,0-8.6-0.3c-5.7-0.5-9,1.4-7.7,7.8l-0.1,0.3c0,0,0,0.2,0,0.2c0.3,0.3,0.3,0.6-0.1,0.9
		c0.1,1.3,0.2,2.6,0.3,4c0.2,1.1,0.4,2.2,0.5,3.3c1.4,3.4,4.6,2.6,7.2,3.1c3.5-0.8,5.4-0.3,5,4.1c-0.6,6.5-0.6,13.1-0.9,19.6
		c0,2-0.1,4-0.1,6c0,1.4-0.1,2.8-0.1,4.1c-0.1,2.3-0.1,4.6-0.2,6.9c0,1.1,0,2.2,0,3.2c0,0.5-0.1,1.1-0.1,1.6c-2.8,1-5.7,0.5-8.5,0.5
		c-7.1,7-7.5,9.8-2.6,17.7c-0.1,0.3-0.1,0.7,0,1l0.1,0.1c2,0.1,4.1,0.3,6.1,0.4c8.6,0,17.2,0.2,25.8,0.1c0,0,3.8,0.2,4.7,0
		c0.9-0.2,3.2-0.5,3.4-3.1c0.2-2.6,0.7-12.1,0.3-13.1C436.9,329,436,328.7,434.4,328.5z"/>
	<path class="st1" d="M402.5,362.6c-2.5,0-5,0-7.4,0.1c-0.6,0-1.2,0-1.7,0c-0.2,0.7-0.4,1.4-0.6,2.1c-1-0.3-2.4,0.2-2.5-1.5
		c-0.9,0-1.8,0-2.6,0c-1.6,0-3.3,0.1-4.9,0.2c-4.3-0.4-8.8,2.3-12.8-1.1c0.1-0.8,0.1-1.6,0.2-2.5l0,0c0.5-8.3,1.9-16.5,1.4-24.8
		c-0.2,0.1-0.5,0.1-0.7,0.2c0.3-0.1,0.5-0.1,0.7-0.2c0-0.8,0.1-1.7,0.1-2.5c0.4-1.2,0.9-2.4,0.4-3.8c0.1-1.3,0.2-2.5,0.3-3.7l0,0
		c0.1-1.6,0.1-3.3,0.2-5l0.5,0.1c0-0.4,0.1-0.9,0.1-1.3c0-3.3-0.4-6.7,0.8-10c0.2-3.3,0.3-6.6,0.5-9.9c-0.1-3.7-0.3-7.5,0.7-11.2
		c0.1-0.8,0.2-1.6,0.2-2.4c0.1-2.5,0.2-5,0.2-7.5c0-0.8,0.1-1.6,0.1-2.4c0.1-2.1,0.3-4.1,0.4-6.2c-0.1-0.2-0.2-0.4-0.2-0.6
		c0.2-11.1-2.1-12.9-13.2-10.2c-1.5,0.4-3.2,0.4-4.8,0.7c-0.4,4.1-0.8,8.2-1.2,12.3c-0.8,10-1.5,20.1-2.2,30.1
		c0.6,1.7,0.3,3.3-0.2,4.9c0,0.4,0,0.8-0.1,1.2c-0.8,16.1-1.5,32.2-2.3,48.4c0,4.6-1.4,9.1-0.7,13.7c-0.1,0.8-0.2,1.6-0.2,2.4
		c-0.1,2.6-0.2,5.2-0.4,7.7c-0.3,3.8,1.2,5.2,4.9,3.8c9.3,2.3,18.2-1.7,27.4-1.5c1.2-0.1,2.4-0.1,3.6-0.2c0-0.2,0-0.5,0-0.7
		c0,0.2,0,0.5,0,0.7c5.4,0.2,10.9,0.2,16.2-1l0,0c0.4,0,0.8-0.1,1.2-0.1l0-0.1c-0.4-1.4,0.8-3.3-1.1-4.3c1.7,0,1.1-1,0.8-1.9
		c0.4-0.4,0.9-0.8,1.4-1.3c-0.3-0.5-0.6-0.9-0.9-1.4c0.1-1.6,0.1-3.1,0.2-4.7c-0.6-0.9-0.5-1.9-0.2-2.8
		C403.5,364,403,363.3,402.5,362.6z M385.9,378.3c0.2,0.3,0.3,0.6,0.4,0.9C386.2,378.9,386.1,378.6,385.9,378.3z M402.7,376.7
		L402.7,376.7c-0.4-0.8-0.3-1.4,0.5-1.8C402.4,375.3,402.3,375.9,402.7,376.7z"/>
	<path class="st0" d="M298.5,529.2c-2.5,0-5,0-7.4,0.1c-0.6,0-1.2,0-1.7,0c-0.2,0.7-0.4,1.4-0.6,2.1c-1-0.3-2.4,0.2-2.5-1.5
		c-0.9,0-1.8,0-2.6,0c-1.6,0-3.3,0.1-4.9,0.2c-4.3-0.5-8.8,2.3-12.8-1.1c0.1-0.8,0.1-1.6,0.2-2.5l0,0c0.5-8.3,1.9-16.5,1.4-24.8
		c-0.2,0.1-0.5,0.1-0.7,0.2c0.3-0.1,0.5-0.1,0.7-0.2c0-0.8,0.1-1.7,0.1-2.5c0.4-1.2,0.9-2.5,0.4-3.8c0.1-1.2,0.2-2.5,0.3-3.7l0,0
		c0.1-1.6,0.1-3.3,0.2-5l0.5,0.1c0-0.4,0.1-0.8,0.1-1.3c0-3.3-0.4-6.7,0.8-10c0.2-3.3,0.3-6.6,0.5-9.9c-0.1-3.8-0.4-7.5,0.7-11.2
		c0.1-0.8,0.2-1.6,0.2-2.4c0.1-2.5,0.2-5,0.3-7.5c0-0.8,0.1-1.6,0.1-2.4c0.1-2.1,0.3-4.1,0.4-6.2c-0.1-0.2-0.2-0.4-0.2-0.6
		c0.2-11.1-2.1-12.9-13.2-10.2c-1.5,0.4-3.2,0.4-4.8,0.7c-0.4,4.1-0.8,8.2-1.2,12.3c-0.8,10-1.5,20.1-2.2,30.1
		c0.6,1.7,0.3,3.3-0.2,4.9c0,0.4,0,0.8-0.1,1.2c-0.8,16.1-1.5,32.2-2.3,48.4c0,4.6-1.4,9.1-0.7,13.7c-0.1,0.8-0.1,1.6-0.2,2.4
		c-0.1,2.6-0.2,5.2-0.4,7.7c-0.3,3.8,1.2,5.2,4.9,3.8c9.3,2.3,18.2-1.7,27.4-1.5c1.2,0,2.4-0.1,3.6-0.2c0-0.2,0-0.5,0-0.7
		c0,0.2,0,0.5,0,0.7c5.4,0.2,10.9,0.2,16.2-1l0,0c0.4,0,0.8-0.1,1.2-0.1l0-0.1c-0.4-1.4,0.8-3.3-1.1-4.3c1.7,0,1.1-1,0.8-1.9
		c0.4-0.4,0.9-0.8,1.4-1.3c-0.3-0.4-0.6-0.9-0.9-1.3c0.1-1.6,0.1-3.1,0.2-4.7c-0.6-0.9-0.5-1.9-0.2-2.8
		C299.5,530.7,299,530,298.5,529.2z M281.9,544.9c0.2,0.3,0.3,0.6,0.4,0.9C282.2,545.5,282.1,545.2,281.9,544.9z M298.6,543.4
		L298.6,543.4c-0.4-0.8-0.3-1.4,0.5-1.8C298.3,541.9,298.2,542.5,298.6,543.4z"/>
	<path class="st1" d="M96.4,497.8c0.1-1.5,0.2-9.5,0.2-9.5c0.1-6.4-2.9-8.4-7.7-9.1c-2-0.7-4-0.2-6-0.2c-0.6,0-1.2,0.1-1.1-0.8
		c0.3-1.5-0.6-1.6-1.7-1.5c-3.3,0-3.3,0-3.5,3.3c0,0.3,0,0.6,0,0.8c-0.1,3-0.2,6.1-0.3,9.1c0.1,1.4,0,2.7-0.2,4.1
		c0.1,1.9,0.1,3.8-0.1,5.7c0,0.3,0,0.7,0,1c0,0.1,0.1,0.2,0.1,0.3c0.1,0.1,0.2,0.1,0.4,0.2c-0.1-0.1-0.3-0.1-0.4-0.2
		c0,0.1-0.1,0.2-0.1,0.3c0,0.1,0.1,0.2,0.1,0.3c0,0.2-0.1,0.4-0.1,0.7c0,1.8,0,3.6,0.1,5.4c0.1,1,0.8,1.1,1.7,1.1
		c3.7,0.1,7.5-0.1,11.2-0.4c1.8-0.7,3.4-1.6,4.7-3.1c0.3-0.4,0.5-0.9,0.8-1.3C95.7,502.4,96.2,499.2,96.4,497.8z M90.9,488.4
		c0,0,0,1.1,0,1.3c0,0.3-0.4,8-0.4,8c0,0.3,0,0.7,0,1c0.4,0.8-0.2,1.5-0.3,2.3c-0.2,0.2-0.5,0.3-0.4,0.6c-1,1.5-2.6,1.8-4.2,2
		c-1.5,0.1-3,0.1-4.5,0.1c0.1-0.1,0-0.2-0.1-0.3c0.1-0.5,0.1-0.9,0.2-1.4c-0.1-1.8,0-3.6,0.2-5.4c0,0,0-2.2,0.1-2.5
		c0.1-0.3,0-1.3,0-1.4c0-0.1,0.2-1.1,0.2-1.2c0-0.1,0-0.9,0-0.9c-0.7-0.6-0.2-1.4-0.3-2.1c0-0.3,0-0.6,0-0.9c0-0.8,0.1-1.6,0.1-2.4
		c-0.3-0.6-0.2-1.1,0.6-1.1c2.2,0,4.3-0.5,6.5,0.1c0,0.1,0.1,0.2,0.1,0.3c1.1,0.1,1.9,0.6,2,1.7V488.4z"/>
	<path class="st0" d="M368.8,523.3c2.5,0,2.2-1.1,2.2-2.6c0-1.5,0.3-3.9,0.6-7.1c0.3-3.2,0-6.2,0-6.2c0.2-0.3,0.1-0.6-0.2-0.8
		c0.2-1.4,0.3-2.7,0.5-4.1c-0.4-5.5,0.1-10.9,0.6-16.4c-0.8-2.2,1.2-1.5,2-2c0.3,0.2,0.7,0.4,1,0.5c2.7-0.2,5.4-0.5,8.1-0.7
		c2,0,4.1-0.1,6.1-0.1c0.2-0.2,0.4-0.3,0.6-0.5c-0.2,0.1-0.4,0.3-0.6,0.5c13-1.3,22.2-13.1,22.2-13.1c2.2-2.6,3.9-6.2,4.4-9.5
		c2.5-18-7-26.2-21.5-28.1c-6-2-12.1-0.5-18.1-0.5c-1.8,0-3.8,0.2-3.3-2.4c0.8-4.6-1.9-4.7-5.3-4.7c-9.9,0.1-9.9,0.1-10.5,10.1
		c0,0.8,0.1,1.7,0.1,2.5c-0.3,9.2-0.6,18.4-1,27.5c0.3,4.1,0.1,8.3-0.6,12.3c0.2,5.8,0.3,11.5-0.3,17.3c0,1-0.1,2-0.1,3.1
		c0.1,0.3,0.2,0.7,0.3,1c0.3,0.3,0.8,0.5,1.2,0.6c-0.4-0.2-0.9-0.4-1.2-0.6c-0.1,0.3-0.3,0.7-0.4,1c0.1,0.3,0.2,0.7,0.3,1
		c-0.1,0.7-0.2,1.3-0.4,2c0.1,5.5,0.1,10.9,0.2,16.4c0.4,3.1,2.5,3.3,5.1,3.4C361.2,523.3,366.3,523.3,368.8,523.3z M394.6,482.3
		c-0.3,0-0.6,0-0.9,0C394,482.3,394.3,482.3,394.6,482.3z M395.1,449.2c3.2,0.2,5.8,1.8,5.9,5c0.2,4.1-1.1,7.8-5.2,10.1
		c-7.1,3.9-14.9,2.1-22.3,3.6c-2.1-1.9-0.5-4.3-0.8-6.5c0-0.9,0.1-1.8,0.1-2.7c0.1-2.4,0.3-4.8,0.4-7.2c-0.7-1.9-0.6-3.4,2-3.4
		c6.5,0,13.1-1.5,19.6,0.3C394.9,448.7,395,448.9,395.1,449.2z"/>
	<g>
		<path class="st1" d="M136.5,493.9c-0.5-0.8-1.1-1.6-1.6-2.4c-1.9-2-4.3-3.4-6.7-4.8c-0.6-0.3-1.1-0.7-1.6-1
			c-0.6-0.4-1.4-1.1-1.1-1.8c0.3-1,0.7-2.2,2-2.4c1-0.2,2.1-0.3,2.9,0.6c0.5,0.5,0.3,1,0.3,1.6c0,1-0.7,2.8,1.6,1.9
			c0.1,0,0.4,0.2,0.6,0.3c1.2,0.1,2.7,0.8,3.2-1.1c0.1-0.4,0.1-0.9,0.2-1.4c0-0.2,0-0.5,0-0.7c-0.2-2.7-1.5-4.7-3.9-5.9
			c-2.1-1.2-4.3-0.7-6.5-0.4c-2.4,0.3-3.9,2.2-4.8,4.5l0,0c-0.4,0.6-0.5,1.2-0.5,1.8c-0.6,1.2-0.3,2.5,0.2,3.7
			c1,2.8,3.5,4.2,5.9,5.5c1.5,0.8,2.9,1.6,4.1,2.8c1.6,1.7,2.2,3.6,1.5,5.8c-0.7,2.1-2.3,3.1-4.4,3.2c-1.8,0.2-3.5,0.3-5.3,0.4
			c-0.9,0.1-1.5,0.3-1.2,1.5c0.2,1.2,0.1,2.4,0.1,3.6c1.8,0.5,3.6-0.2,5.5,0c1.9-0.5,3.9-0.4,5.6-1.4c4.7-2.6,6.7-8.2,4.6-13.1
			C136.8,494.6,136.6,494.3,136.5,493.9z"/>
	</g>
	<g>
		<path class="st0" d="M465.2,445.8c-2-3-4.1-6-6.1-9c-7.4-7.6-16.4-12.9-25.5-18c-2.1-1.2-4.1-2.6-6-4c-2.3-1.7-5.1-4.1-4.3-6.7
			c1.2-3.6,2.6-8.2,7.4-9.1c3.9-0.7,7.9-1,11,2.2c1.8,1.8,1.2,3.8,1.1,6c-0.1,3.9-2.6,10.5,6.1,7.4c0.5-0.2,1.5,0.8,2.2,1.2
			c4.7,0.4,10.1,3.1,12.1-4.2c0.2-1.7,0.4-3.4,0.7-5.1c0-0.9-0.1-1.8-0.1-2.6c-0.7-10.3-5.6-17.8-14.8-22.6
			c-7.9-4.4-16.5-2.8-24.5-1.7c-9.2,1.3-14.7,8.5-18.2,17l-0.1,0.2c-1.5,2.1-1.8,4.5-2,7c-2.2,4.7-1,9.3,0.7,13.9
			c3.9,10.8,13.2,15.8,22.4,21c5.5,3.1,11,6.1,15.5,10.8c6.1,6.4,8.4,13.6,5.5,22.2c-2.7,8-8.7,11.6-16.8,12.3
			c-6.7,0.6-13.5,1.1-20.2,1.7c-3.5,0.3-5.5,1.1-4.5,5.6c0.9,4.4,0.4,9.1,0.5,13.7c6.9,2,13.9-0.8,20.8,0.2
			c7.1-1.7,14.7-1.5,21.4-5.2c17.7-9.8,25.3-31,17.5-49.8C466.3,448.6,465.7,447.2,465.2,445.8z"/>
	</g>
</g>
</svg>
