<?xml version="1.0" encoding="utf-8"?>
<!-- Generator: Adobe Illustrator 27.9.4, SVG Export Plug-In . SVG Version: 9.03 Build 54784)  -->
<svg version="1.1" id="Calque_1" xmlns="http://www.w3.org/2000/svg" xmlns:xlink="http://www.w3.org/1999/xlink" x="0px" y="0px"
	 viewBox="0 0 97.8 85.5" style="enable-background:new 0 0 97.8 85.5;" xml:space="preserve">
<style type="text/css">
	.st0{fill:#FFFFFF;}
</style>
<path class="st0" d="M93.3,7.8c2.1-4.4-2.5-5.1-10-4.9c-22.1,0.4-44.3,1-66.6,0.8C5.3,3.7,0.1,5.3,2.9,11.2c0.3,0.7,0.1,1.6,0.3,2.3
	c1.8,3-2.8,8.2,9.2,8.1c26.5-0.3,53.1-1,79.5-1.5c0.6-0.1,1.3-0.2,1.9-0.3c-0.6-0.1-1.3-0.2-1.9-0.3c-0.4-0.4-0.9-1-1.3-1.4
	C100.9,15.3,91.8,11.2,93.3,7.8z"/>
<path class="st0" d="M93.3,38.4c2.1-4.4-2.5-5.1-10-4.9c-22.1,0.4-44.3,1-66.6,0.8c-11.4,0-16.6,1.6-13.8,7.5
	c0.3,0.7,0.1,1.6,0.3,2.3c1.8,3-2.8,8.2,9.2,8.1c26.5-0.3,53.1-1,79.5-1.5c0.6-0.1,1.3-0.2,1.9-0.3c-0.6-0.1-1.3-0.2-1.9-0.3
	c-0.4-0.4-0.9-1-1.3-1.4C100.9,45.9,91.8,41.7,93.3,38.4z"/>
<path class="st0" d="M93.3,69c2.1-4.4-2.5-5.1-10-4.9c-22.1,0.4-44.3,1-66.6,0.8c-11.4,0-16.6,1.6-13.8,7.5c0.3,0.7,0.1,1.6,0.3,2.3
	c1.8,3-2.8,8.2,9.2,8.1c26.5-0.3,53.1-1,79.5-1.5c0.6-0.1,1.3-0.2,1.9-0.3c-0.6-0.1-1.3-0.2-1.9-0.3c-0.4-0.4-0.9-1-1.3-1.4
	C100.9,76.4,91.8,72.3,93.3,69z"/>
</svg>
