<?xml version="1.0" encoding="utf-8"?>
<!-- Generator: Adobe Illustrator 27.9.4, SVG Export Plug-In . SVG Version: 9.03 Build 54784)  -->
<svg version="1.0" id="Calque_1" xmlns="http://www.w3.org/2000/svg" xmlns:xlink="http://www.w3.org/1999/xlink" x="0px" y="0px"
	 viewBox="0 0 63.8 25.8" style="enable-background:new 0 0 63.8 25.8;" xml:space="preserve">
<style type="text/css">
	.st0{clip-path:url(#SVGID_00000134953463586829225920000012265398340621510040_);}
	.st1{fill:#F4943F;}
</style>
<g>
	<g>
		<defs>
			<rect id="SVGID_1_" x="-266.3" y="-303" width="595.3" height="841.9"/>
		</defs>
		<clipPath id="SVGID_00000100378112623873252400000003177666023594304676_">
			<use xlink:href="#SVGID_1_"  style="overflow:visible;"/>
		</clipPath>
		<g style="clip-path:url(#SVGID_00000100378112623873252400000003177666023594304676_);">
			<path class="st1" d="M62.2,6.8c1.4-6-1.7-7-6.8-6.8C40.3,0.6,25.1,1.4,10,1.2C2.1,1.1-1.4,3.4,0.5,11.5c0.2,1,0.1,2.1,0.2,3.2
				C1.9,18.9-1.2,26,7,25.8c18.1-0.4,36.2-1.4,54.3-2.1c0.4-0.1,0.9-0.3,1.3-0.4c-0.4-0.1-0.9-0.3-1.3-0.4c-0.3-0.6-0.6-1.3-0.9-1.9
				C67.4,17.1,61.1,11.5,62.2,6.8"/>
		</g>
	</g>
</g>
<text transform="matrix(1 0 0 1 197.8317 -132.0458)" style="font-family:'Radikal-Light'; font-size:10px;"> </text>
</svg>
