<?xml version="1.0" encoding="utf-8"?>
<!-- Generator: Adobe Illustrator 27.9.4, SVG Export Plug-In . SVG Version: 9.03 Build 54784)  -->
<svg version="1.1" id="Calque_1" xmlns="http://www.w3.org/2000/svg" xmlns:xlink="http://www.w3.org/1999/xlink" x="0px" y="0px"
	 viewBox="0 0 174.1 215.3" style="enable-background:new 0 0 174.1 215.3;" xml:space="preserve">
<style type="text/css">
	.st0{clip-path:url(#SVGID_00000134927870006514213780000003381201680214353840_);}
	.st1{fill:#F4943F;}
	.st2{fill:#3E245C;}
	.st3{fill:#E52322;}
</style>
<g>
	<defs>
		<rect id="SVGID_1_" x="-211.1" y="-302.8" width="595.3" height="841.9"/>
	</defs>
	<clipPath id="SVGID_00000082341139505752895170000015009471762905066414_">
		<use xlink:href="#SVGID_1_"  style="overflow:visible;"/>
	</clipPath>
	<g style="clip-path:url(#SVGID_00000082341139505752895170000015009471762905066414_);">
		<path class="st1" d="M117.4,7c1.4-6-1.7-7-6.8-6.8C95.5,0.8,80.3,1.6,65.2,1.4c-7.9-0.1-11.4,2.2-9.5,10.3c0.2,1,0.1,2.1,0.2,3.2
			c1.2,4.2-1.9,11.3,6.3,11.1c18.1-0.4,36.2-1.4,54.3-2.1c0.4-0.1,0.9-0.3,1.3-0.4c-0.4-0.1-0.9-0.3-1.3-0.4
			c-0.3-0.6-0.6-1.3-0.9-1.9C122.6,17.3,116.3,11.7,117.4,7"/>
		<path class="st1" d="M117.4,196.3c1.4-6-1.7-7-6.8-6.8c-15.1,0.6-30.3,1.4-45.4,1.2c-7.9-0.1-11.4,2.2-9.5,10.3
			c0.2,1,0.1,2.1,0.2,3.2c1.2,4.2-1.9,11.3,6.3,11.1c18.1-0.4,36.2-1.4,54.3-2.1c0.4-0.1,0.9-0.3,1.3-0.4c-0.4-0.1-0.9-0.3-1.3-0.4
			c-0.3-0.6-0.6-1.3-0.9-1.9C122.6,206.6,116.3,200.9,117.4,196.3"/>
		<path class="st2" d="M63.9,84.4c0,0,0.1,4.6,0,5.7c-0.1,1.1-1.6,34.3-1.6,34.3c0,1.4,0.1,2.8,0.2,4.2c1.6,3.5-0.9,6.5-1.2,9.8
			c-0.8,0.8-2,1.3-1.9,2.7c-4.3,6.2-10.9,7.9-17.8,8.4c-6.4,0.5-12.8,0.4-19.2,0.5c0.2-0.4,0.2-0.8-0.2-1.1c0.2-1.9,0.4-3.9,0.7-5.8
			c-0.6-7.7,0.1-15.4,0.9-23.1c0,0-0.1-9.3,0.4-10.6c0.4-1.3,0.1-5.5,0-5.8c-0.1-0.4,0.8-4.8,0.9-5.2c0.1-0.4,0.1-4,0.1-4
			c-2.9-2.7-0.7-6.1-1.2-9.2c0-1.3,0.1-2.5,0.1-3.8c0.2-3.4,0.4-6.8,0.6-10.1c-1-2.7-0.8-4.7,2.8-4.8c9.2,0,18.5-2.2,27.7,0.4
			c0.2,0.4,0.3,0.7,0.4,1.1c4.6,0.3,8.2,2.5,8.4,7.1V84.4z M87.3,124.4c0.6-6.2,0.9-40.5,0.9-40.5c0.5-27.3-12.4-36-32.9-38.7
			c-8.4-2.8-17-0.7-25.6-0.7c-2.5,0-5.3,0.3-4.6-3.4c1.1-6.5-2.6-6.7-7.4-6.6c-14,0.2-14,0.1-14.8,14.2C2.8,50,2.9,51.2,3,52.4
			C2.5,65.3,2.1,78.3,1.6,91.2c0.4,5.8,0.2,11.6-0.8,17.4c0.3,8.1,0.4,16.3-0.4,24.4c0,1.4-0.1,2.9-0.1,4.3c0.2,0.5,0.3,1,0.5,1.5
			c0.4,0.4,1.1,0.6,1.7,0.9c-0.6-0.3-1.2-0.5-1.7-0.9c-0.2,0.5-0.4,1-0.6,1.5c0.2,0.5,0.3,1,0.5,1.5c-0.2,0.9-0.3,1.9-0.5,2.8
			c0.1,7.7,0.2,15.4,0.3,23.1c0.5,4.4,3.5,4.7,7.2,4.8c16,0.5,31.8-0.5,47.7-1.9c7.7-2.8,14.7-6.8,20.1-13.1
			c1.1-1.8,2.1-3.7,3.3-5.4C84.6,144.1,86.7,130.6,87.3,124.4"/>
		<path class="st3" d="M164.6,48.8c-5-6-11-9.5-19-8.8c-3.2,0-6.3-3-9.5-0.2c-1.6,0.9-3.7,0.7-4.6,2.8l-0.1-0.1
			c-12.6,4.3-19.8,14.3-26.2,25c-1.3,5.4-2.5,10.8-3.8,16.2c-3.5,20.5-5.5,41.1-3.2,61.9c1.5,13.4,12,22,25.8,25.6
			c2,0.3,4.1,0.6,6.1,1l-0.2-0.5c3.2,0.3,6.6,1.3,9.5-1c2.8-0.4,6,0.7,7.9-2.6c0,0,0.1-0.1,0.1-0.1c11.5-1,14.9-10.4,19.2-18.7
			c0.3-0.9,0.5-1.8,0.8-2.7c0.3-1.8,0.7-3.7,1-5.5c0.1-0.8,0.2-1.6,0.2-2.4c-0.3-1.2-0.3-2.3,0.6-3.2c0.3-5.5,0.6-11,0.8-16.5
			c-7.4-0.5-14.9,0.8-22.3-0.6c-1.2,7.4-2.2,14.8-3.6,22.2c-1.4,7.6-7.8,8.4-13.5,7.8c-5.4-0.5-9.7-3.3-10.1-10.1
			c-0.8-15,1.1-29.8,2.7-44.6c0.8-7.5,1.9-15.1,6-21.7c-2.7-1.7-2.6-4-2.2-6.4c-0.4,2.3-0.5,4.6,2.2,6.4c4.5-5.3,9.5-9.6,17.1-8.8
			c1.6,5.4,3.3,10.9,4.9,16.3c0,2.3,0.2,4.6,0,6.9c-0.2,2-0.1,2.9,2.5,3.2c18.2,2.1,22.5-2.3,18.9-20.5c-0.1-0.7-0.5-1.4-0.7-2.1
			c-0.7-4-1.4-7.9-2.2-11.8C167.1,53.8,166.3,50.9,164.6,48.8"/>
	</g>
</g>
<g>
	<defs>
		<rect id="SVGID_00000150100457117958492330000012403491622008490687_" x="-211.1" y="-302.8" width="595.3" height="841.9"/>
	</defs>
	<clipPath id="SVGID_00000049936604359822638610000013472146190794529196_">
		<use xlink:href="#SVGID_00000150100457117958492330000012403491622008490687_"  style="overflow:visible;"/>
	</clipPath>
</g>
<text transform="matrix(1 0 0 1 253.0248 -131.8717)" style="font-family:'Radikal-Light'; font-size:10px;"> </text>
</svg>
