<?xml version="1.0" encoding="UTF-8"?>
<svg id="logo" xmlns="http://www.w3.org/2000/svg" xmlns:xlink="http://www.w3.org/1999/xlink" version="1.1" viewBox="0 0 841.9 595.3">
  <defs>
    <style>
      .cls-1 {
        clip-path: url(#clippath);
      }

      .cls-2 {
        fill: none;
      }

      .cls-2, .cls-3, .cls-4 {
        stroke-width: 0px;
      }

      .cls-3 {
        fill: #f49646;
      }

      .cls-5 {
        clip-path: url(#clippath-1);
      }

      .cls-4 {
        fill: #fff;
      }
    </style>
    <clipPath id="clippath">
      <rect class="cls-2" x="114.3" y="78" width="613.7" height="438.2"/>
    </clipPath>
    <clipPath id="clippath-1">
      <rect class="cls-2" x="114.3" y="78" width="613.7" height="438.2"/>
    </clipPath>
  </defs>
  <g id="Logo_Déclic_-_Blanc" data-name="Logo Déclic - Blanc">
    <g class="cls-1">
      <g class="cls-5">
        <path class="cls-4" d="M136,354.5h.4c2.2.8,4.3-.4,6.4-.7.9,0,1.8,0,2.7,0,2.7,0,5.4,0,8.1,0,.4,0,.7,0,1.1,0,2.1.4,2.4-.7,2.3-2.5-.1-3,0-6.1,0-9.1,0-.4,0-.8-.1-1.2-.8-.1-1.5-.3-2.3-.4-1,0-1.9,0-2.9,0-.2-.2-.5-.2-.7,0-3.6,0-7.3-.1-10.9-.2-1.5,0-3,0-4.5.1-1.5.5-3,.5-4.5.1-.9.5-1.8.3-2.8,0-.6,0-1.1.2-1.7.3-.3,0-.6,0-.9,0-2.6.6-3.7,2.4-3.7,4.9,0,3.6,0,7.2,0,10.8,0,1.4,0,2.7,0,4.1-.4,11.4-1,22.7-1.2,34.1,0,5.2,1.8,6.5,7.3,6.5,1,0,2.1-.1,3.1-.2,6.6,0,13.3-.4,19.9-1.2,5.9.2,6,.2,5.8-5.5,0-1.9-.5-3.8-.4-5.8.1-2.2-1.2-2.4-2.7-2.5-.6,0-1.2,0-1.8,0-.3.1-.6.3-.9.4-2.2,0-4.5,0-6.7,0-3,0-6.7,1.9-8.7.2-2.3-1.9-.2-5.9-.7-9,5.7,0,11.4-.1,17-.3,1.3,0,4,.3,3.1-1.8-1.5-3.8,1.9-8.2-1.5-11.6-.2-.2-.6,0-.9,0-5.1,0-10.2,0-15.2,0-2.4,0-1.8-1.8-2-3.1.4-1.8.5-3.5,0-5.3,0-.4.2-.8.2-1.1h.4ZM132.3,359.4c.2,0,.4.2.6.3-.2,0-.4-.2-.6-.3"/>
        <path class="cls-4" d="M298.3,171.7l1-.2c5.7,2.2,11-.8,16.4-1.5,2.3,0,4.7-.1,7-.2,6.9,0,13.9-.2,20.8-.2,1,0,1.9,0,2.9,0,5.5,1,6.1-1.9,5.9-6.6-.4-7.8,0-15.7,0-23.5,0-1.1-.2-2.1-.3-3.2-2-.3-3.9-.7-5.9-1-2.5,0-4.9,0-7.4,0-.6-.4-1.3-.4-1.9,0-9.4-.2-18.8-.4-28.2-.6-3.9,0-7.8.2-11.7.3-3.8,1.2-7.7,1.3-11.6.3-2.3,1.2-4.7.8-7.1,0-1.4.2-2.9.5-4.3.7-.8,0-1.6.1-2.3.2-6.6,1.7-9.5,6.1-9.5,12.7,0,9.3-.1,18.6-.2,27.9,0,3.5-.1,7.1-.2,10.6-1.1,29.3-2.7,58.6-3.2,87.9-.2,13.3,4.6,16.7,18.7,16.7,2.7,0,5.4-.3,8-.5,17.1,0,34.2-1.1,51.2-3,15.3.5,15.4.5,15.1-14.3-.1-4.9-1.3-9.9-1-14.8.3-5.6-3-6.1-7-6.4-1.5,0-3.1,0-4.6,0-.8.4-1.6.7-2.4,1.1-5.8,0-11.5,0-17.3,0-7.7,0-17.3,4.8-22.4.4-5.8-5-.6-15.2-1.8-23.1,14.6-.2,29.3-.4,43.9-.8,3.4,0,10.2.9,8.1-4.6-3.8-9.9,4.9-21.1-4-29.9-.4-.4-1.5-.1-2.3-.1-13.1,0-26.2,0-39.3,0-6.1.1-4.6-4.6-5.2-8,1-4.5,1.3-9.1,0-13.7.2-1,.4-1.9.6-2.9h1.1ZM288.7,184.5c.5.2,1.1.6,1.5.7-.5-.1-1-.5-1.5-.7"/>
        <path class="cls-4" d="M237.2,234.4c.7-8.3,1.2-54.4,1.2-54.4.6-36.7-16.6-48.4-44.2-52-11.3-3.8-22.8-1-34.3-1-3.3,0-7.1.4-6.2-4.5,1.5-8.7-3.5-8.9-9.9-8.9-18.8.3-18.8.1-19.8,19.1,0,1.6.1,3.2.2,4.8-.6,17.4-1.2,34.8-1.8,52.2.6,7.8.2,15.6-1.1,23.4.5,10.9.5,21.9-.6,32.8,0,1.9,0,3.9-.1,5.8.2.7.4,1.3.6,2,.6.5,1.4.9,2.3,1.2-.8-.4-1.7-.7-2.3-1.2-.3.7-.5,1.3-.8,2,.2.7.4,1.3.7,2-.2,1.3-.5,2.5-.7,3.8.1,10.3.2,20.7.3,31,.7,5.9,4.7,6.4,9.6,6.5,21.4.6,42.7-.7,63.9-2.5,10.4-3.7,19.7-9.1,27-17.6,1.5-2.4,2.8-5,4.4-7.2,7.8-10.8,10.7-28.8,11.4-37.1M205.9,180.6s0,6.2,0,7.7c0,1.5-2.1,46-2.1,46,0,1.9.1,3.7.2,5.6,2.2,4.7-1.2,8.7-1.6,13.1-1.1,1-2.6,1.8-2.6,3.7-5.8,8.4-14.7,10.6-23.9,11.3-8.6.7-17.2.5-25.8.7.3-.6.2-1.1-.3-1.5.3-2.6.6-5.2.9-7.8-.8-10.4.2-20.7,1.2-31.1,0,0,0-12.5.5-14.3.6-1.8.1-7.3,0-7.8-.1-.5,1-6.4,1.2-7,.1-.6.2-5.4.2-5.4-3.9-3.7-.9-8.2-1.6-12.3,0-1.7.1-3.4.2-5.1.3-4.5.6-9.1.8-13.6-1.4-3.7-1.1-6.4,3.7-6.4,12.4,0,24.8-2.9,37.1.5.2.5.4,1,.6,1.5,6.1.4,11,3.3,11.2,9.6v12.6Z"/>
        <path class="cls-4" d="M207.3,325.6c0-2.3,0-4.6.1-7-.3,0-.6,0-.9,0-1.8-.2-3.5-.5-5.3-.4-7.6,0-15.2.2-22.8.3-10.7.2-21.5.5-32.2.4-3.1,0-4.4.7-4,4,.4,3.2-.5,6.6,1,9.7,7,.1,14,.2,20.9.3,1.8-.4,3.5-.4,5.3,0,1.8.8.6,2.2.7,3.4,0,.9-.1,1.8-.2,2.7-.8,17.6-1.6,35.2-2.3,52.8-.4,10,.4,10.4,10.6,9.6,2.4-.2,3-1.2,3.1-3.3.2-5.1.5-10.2.8-15.3.7-15.7,1.3-31.3,1.9-46.9,0-1.9,0-3.8,2.7-3.5.3.1.5.3.8.4,5.4,0,10.8,0,16.3,0v-.4c-.1,0,1.9,0,1.9,0,.6.1,1.1.3,1.7.4,1.5,0,3,0,4.5,0,.9,0,1.8,0,2.7,0,4.2,0,8.4-.2,12.6-.3,2.5-1.6.3-4.3,1.6-6.2,0-.9-.1-1.7-.2-2.6.2-4.2-1.8-5.5-5.9-5.2-5.1.4-10.2.3-15.2.4,0,2.3-.1,4.6-.1,7M190,331.6s0,0,0,0c0,0,0,0,0,0"/>
        <path class="cls-4" d="M468.5,476.8c1.5,7.6,3.1,15.2,4.6,22.7.5,1,1,2,1.5,3,3.2,1.5,5.9-7.1,9.4-.5,9.9-6.1,10.6-9.5,6-27.2-7-28.9-14-57.7-21.1-86.6-1.9-7.8-3.8-15.6-5.7-23.5,3.9-1.8,8-.9,12-1.1,4.8-.3,7.1-2.5,6.1-7.2-1-4.8-.4-9.5.3-14.2-5.3,1.7-10.4,1.3-15.6-.7-1.5,0-2.9.2-4.4.3-6.3.5-12.7,1.1-19,1.7-.2,0-.5,0-.7,0-7.2-1.1-11.4.4-12.3,9.3-1.2,12-4.4,23.8-6.7,35.6-2.4,11-4.8,22-7.2,32.9l-6.4,31.6c-1.8,11.6-1.8,11.6,9.1,14q9.9,2.2,12-7.5c.7-3,1.5-6,2.3-9-.5-2.5.7-3.5,3.1-3.6,7.4,0,14.8-.2,22.2-.3,3,0,3.6,1.7,3.4,4.2,2.3,8.7,4.7,17.4,7,26.1M438.3,422.1c2.4-11.6,4.8-23.3,7.5-36.5,3.1,11.8,5.7,21.8,8.3,31.8.3,1.4.6,2.8.9,4.2q.5,0,0,0c1.3,4.9-6.1,4.4-9.8,4.4-1.7,0-7.2,0-7.1-1.9,0-.5.1-1.3.2-2"/>
        <path class="cls-4" d="M162,424.3h.2c1.3.4,2.5-.2,3.7-.4.5,0,1,0,1.6,0,1.6,0,3.1,0,4.7,0,.2,0,.4,0,.6,0,1.2.2,1.4-.4,1.3-1.5,0-1.8,0-3.5,0-5.3,0-.2,0-.5,0-.7-.4,0-.9-.1-1.3-.2-.6,0-1.1,0-1.7,0-.1,0-.3,0-.4,0-2.1,0-4.2,0-6.3-.1-.9,0-1.7,0-2.6,0-.9.3-1.7.3-2.6,0-.5.3-1.1.2-1.6,0-.3,0-.6.1-1,.2-.2,0-.4,0-.5,0-1.5.4-2.1,1.4-2.1,2.8,0,2.1,0,4.2,0,6.2,0,.8,0,1.6,0,2.4-.3,6.6-.6,13.1-.7,19.7,0,3,1,3.8,4.2,3.7.6,0,1.2,0,1.8-.1,3.8,0,7.7-.3,11.5-.7,3.4.1,3.5.1,3.4-3.2,0-1.1-.3-2.2-.2-3.3,0-1.3-.7-1.4-1.6-1.4-.3,0-.7,0-1,0-.2,0-.4.2-.5.3-1.3,0-2.6,0-3.9,0-1.7,0-3.9,1.1-5,0-1.3-1.1-.1-3.4-.4-5.2,3.3,0,6.6,0,9.8-.2.8,0,2.3.2,1.8-1-.9-2.2,1.1-4.7-.9-6.7,0,0-.3,0-.5,0-2.9,0-5.9,0-8.8,0-1.4,0-1-1-1.2-1.8.2-1,.3-2,0-3.1,0-.2,0-.4.1-.7h.2ZM159.9,427.2c.1,0,.2.1.3.2-.1,0-.2-.1-.3-.2"/>
        <path class="cls-4" d="M466.4,116.8c-6.8-8.3-15-13.1-26-12-4.3,0-8.5-4.2-12.9-.2-2.1,1.2-5.1,1-6.3,3.8v-.2c-17.4,5.9-27.1,19.6-35.9,34.3-1.7,7.4-3.5,14.8-5.2,22.2-4.8,28.1-7.6,56.3-4.3,84.8,2.1,18.4,16.4,30.2,35.2,35.1,2.8.4,5.6.9,8.4,1.3l-.3-.7c4.4.4,9,1.8,13-1.4,3.8-.6,8.3.9,10.7-3.6,0,0,.2-.2.2-.2,15.8-1.3,20.3-14.2,26.3-25.6.4-1.2.7-2.4,1.1-3.7.5-2.5.9-5.1,1.4-7.6.1-1.1.2-2.2.3-3.3-.4-1.6-.5-3.1.8-4.4.4-7.5.8-15.1,1.1-22.6-10.1-.7-20.3,1.1-30.4-.8-1.6,10.1-3,20.3-4.9,30.4-2,10.4-10.6,11.5-18.5,10.7-7.3-.8-13.3-4.5-13.8-13.8-1.1-20.6,1.5-40.8,3.7-61.1,1.1-10.3,2.5-20.7,8.2-29.7-3.7-2.4-3.6-5.5-3-8.7-.6,3.2-.7,6.4,3,8.7,6.1-7.3,13-13.1,23.4-12.1,2.2,7.4,4.5,14.9,6.7,22.3,0,3.1.2,6.3,0,9.4-.2,2.8,0,4,3.4,4.4,24.9,2.9,30.7-3.2,25.8-28.1-.2-1-.7-1.9-1-2.9-1-5.4-2-10.8-3-16.2-3.8-1.6-5-5.6-7.3-8.4"/>
        <path class="cls-4" d="M322.3,350.3c-6.7-8.1-14.7-12.8-25.5-11.8-4.2,0-8.4-4.1-12.7-.2-2.1,1.1-5,1-6.1,3.7v-.2c-17,5.8-26.6,19.2-35.3,33.6-1.7,7.3-3.4,14.5-5.1,21.8-4.7,27.6-7.4,55.2-4.2,83.2,2.1,18,16.1,29.6,34.5,34.4,2.7.4,5.5.9,8.2,1.3l-.3-.7c4.3.4,8.8,1.8,12.8-1.4,3.7-.6,8.1.9,10.5-3.5,0,0,.2-.2.2-.2,15.5-1.3,19.9-13.9,25.8-25.2.4-1.2.7-2.4,1.1-3.6.5-2.5.9-5,1.4-7.4.1-1.1.2-2.1.3-3.2-.4-1.6-.4-3.1.8-4.3.4-7.4.7-14.8,1.1-22.2-9.9-.7-19.9,1.1-29.9-.8-1.6,10-2.9,19.9-4.8,29.8-1.9,10.2-10.4,11.2-18.1,10.4-7.2-.7-13.1-4.4-13.5-13.6-1.1-20.2,1.5-40.1,3.6-60,1.1-10.1,2.5-20.3,8.1-29.2-3.6-2.3-3.5-5.4-2.9-8.6-.6,3.1-.7,6.2,2.9,8.6,6-7.2,12.7-12.9,22.9-11.8,2.2,7.3,4.4,14.6,6.6,21.9,0,3.1.2,6.2,0,9.2-.2,2.7,0,3.9,3.4,4.3,24.4,2.9,30.1-3.1,25.3-27.5-.2-1-.6-1.9-1-2.8-1-5.3-1.9-10.6-2.9-15.9-3.7-1.5-4.9-5.4-7.2-8.2"/>
        <path class="cls-4" d="M716,128.4c-6.4-7.7-14-12.2-24.2-11.2-4,0-8-3.9-12-.2-2,1.1-4.7.9-5.8,3.5v-.2c-16.2,5.5-25.3,18.3-33.5,32-1.6,6.9-3.2,13.8-4.9,20.7-4.4,26.2-7.1,52.5-4,79,2,17.1,15.3,28.1,32.8,32.7,2.6.4,5.2.8,7.8,1.2l-.2-.7c4.1.3,8.3,1.7,12.1-1.3,3.5-.6,7.7.9,10-3.3,0,0,.1-.2.1-.2,14.7-1.2,19-13.2,24.5-23.9.3-1.1.7-2.3,1-3.4.4-2.4.9-4.7,1.3-7.1.1-1,.2-2,.3-3-.4-1.5-.4-2.9.7-4.1.4-7,.7-14,1.1-21.1-9.4-.6-19,1-28.4-.7-1.5,9.5-2.8,18.9-4.6,28.3-1.8,9.7-9.9,10.7-17.2,9.9-6.8-.7-12.4-4.2-12.9-12.9-1-19.2,1.4-38.1,3.4-57,1-9.6,2.4-19.2,7.7-27.7-3.4-2.2-3.3-5.1-2.8-8.1-.6,3-.7,5.9,2.8,8.1,5.7-6.8,12.1-12.2,21.8-11.2,2.1,6.9,4.2,13.9,6.2,20.8,0,2.9.2,5.8,0,8.7-.2,2.6,0,3.7,3.2,4.1,23.2,2.7,28.6-3,24.1-26.2-.2-.9-.6-1.8-.9-2.7-.9-5-1.8-10.1-2.8-15.1-3.6-1.5-4.6-5.2-6.8-7.8"/>
        <path class="cls-4" d="M607.7,209.5c-1.1,0-2.3-.2-3.4-.3-4.8-1.2-7-3.4-6.6-9.1,1.2-16.5,1.5-33.2,2.1-49.7.1-3.6.6-6.6,4.7-7.5q10.3.1,10.3-11.6,0-13.7-10.4-13.3s-.5-.6-.5-.6c-8.3.7-16.7.9-25,.2-.3.2-.4.4-.4.7-3.9-.1-7.8,0-11.7-.4-7.8-.6-12.2,1.9-10.5,10.6l-.2.5s0,.3,0,.3c.4.4.4.9-.1,1.2.1,1.8.3,3.6.4,5.4.2,1.5.5,3,.7,4.4,1.9,4.6,6.2,3.6,9.8,4.3,4.7-1.1,7.3-.4,6.8,5.6-.8,8.9-.8,17.8-1.2,26.8,0,2.7,0,5.4-.1,8.2,0,1.9-.1,3.8-.2,5.6,0,3.2-.2,6.3-.3,9.5,0,1.5,0,2.9,0,4.4,0,.7-.1,1.5-.2,2.2-3.8,1.4-7.7.7-11.6.7-9.6,9.6-10.2,13.4-3.5,24.1,0,.5,0,.9,0,1.4h.1c2.8.3,5.5.4,8.3.6,11.7,0,23.4.3,35.1.1,0,0,5.2.3,6.4,0,1.3-.2,4.4-.7,4.7-4.3.3-3.6.9-16.5.5-17.9-.5-1.4-1.8-1.9-4-2.1"/>
        <path class="cls-4" d="M564.4,255.9c-3.4,0-6.7,0-10.1,0-.8,0-1.6,0-2.4,0-.3.9-.5,1.9-.8,2.8-1.3-.3-3.2.3-3.4-2-1.2,0-2.4,0-3.6,0-2.2,0-4.4.1-6.7.2-5.8-.6-11.9,3.1-17.4-1.4,0-1.1.2-2.2.2-3.4.6-11.3,2.5-22.5,1.9-33.8-.3.1-.7.2-1,.3.4,0,.7-.2,1-.3,0-1.1,0-2.3.1-3.4.6-1.7,1.3-3.3.5-5.1.1-1.7.3-3.4.4-5.1,0-2.2.2-4.5.3-6.8h.6c0-.4,0-1,.1-1.6,0-4.6-.5-9.1,1-13.6.2-4.5.5-9,.7-13.5-.2-5.1-.5-10.2,1-15.2.1-1.1.2-2.2.3-3.3.1-3.4.2-6.8.3-10.2,0-1.1.1-2.2.2-3.3.2-2.8.4-5.6.5-8.4,0-.3-.2-.5-.2-.8.3-15.1-2.9-17.5-18-14-2.1.5-4.3.6-6.5.9-.5,5.6-1.1,11.1-1.6,16.7-1,13.7-2,27.4-3,41.1.8,2.3.4,4.5-.3,6.7,0,.6,0,1.1,0,1.7-1.1,22-2.1,43.9-3.2,65.9,0,6.2-2,12.4-1,18.6,0,1.1-.2,2.2-.3,3.3-.2,3.5-.2,7-.5,10.6-.5,5.2,1.6,7.1,6.6,5.2,12.6,3.1,24.8-2.3,37.2-2.1,1.7,0,3.3-.1,5-.2,0-.3,0-.7,0-1,0,.3,0,.7,0,1,7.4.2,14.8.3,22-1.3.6,0,1.1-.1,1.6-.2h0c-.6-2,1.1-4.6-1.5-6,2.3,0,1.5-1.4,1.1-2.6.6-.6,1.2-1.1,1.8-1.7-.4-.6-.8-1.2-1.2-1.8,0-2.1.2-4.2.3-6.4-.8-1.2-.7-2.5-.2-3.8-.7-1-1.4-1.9-2.1-2.9M541.8,277.3c.3.4.4.8.5,1.3,0-.5-.2-.9-.5-1.3M564.6,275.1h0c-.5-1.1-.4-2,.6-2.4-1,.5-1.2,1.3-.6,2.4"/>
        <path class="cls-4" d="M423,483c-3.4,0-6.8,0-10.1,0-.8,0-1.6,0-2.4,0-.3.9-.5,1.9-.8,2.8-1.3-.3-3.2.3-3.4-2-1.2,0-2.4,0-3.6,0-2.2,0-4.4.1-6.7.2-5.8-.6-11.9,3.1-17.4-1.4,0-1.1.1-2.2.2-3.4.6-11.3,2.5-22.5,1.9-33.8-.3.1-.7.2-1,.3.4,0,.7-.2,1-.3,0-1.1,0-2.3.1-3.4.6-1.7,1.3-3.3.5-5.1.1-1.7.3-3.4.4-5.1,0-2.2.2-4.5.3-6.7h.6c0-.4,0-1,.1-1.6,0-4.6-.5-9.1,1-13.6.2-4.5.4-9,.7-13.5-.2-5.1-.5-10.2,1-15.2.1-1.1.2-2.2.3-3.3.1-3.4.2-6.8.3-10.2,0-1.1.1-2.2.2-3.3.2-2.8.4-5.6.5-8.4,0-.3-.2-.5-.2-.8.3-15.1-2.9-17.5-18-14-2.1.5-4.3.6-6.5.9-.5,5.6-1.1,11.1-1.6,16.7-1,13.7-2,27.4-3,41.1.8,2.3.5,4.5-.3,6.7,0,.6,0,1.1,0,1.7-1.1,22-2.1,43.9-3.2,65.9,0,6.2-2,12.4-1,18.6,0,1.1-.2,2.2-.3,3.3-.2,3.5-.2,7-.5,10.6-.5,5.2,1.6,7.1,6.6,5.2,12.6,3.1,24.8-2.3,37.2-2.1,1.7,0,3.3-.1,5-.2,0-.3,0-.7,0-1,0,.3,0,.7,0,1,7.4.2,14.8.3,22-1.3.6,0,1.1-.1,1.6-.2h0c-.6-2,1.1-4.6-1.5-6,2.3,0,1.5-1.4,1.1-2.6.6-.6,1.2-1.1,1.8-1.7-.4-.6-.8-1.2-1.2-1.8,0-2.1.2-4.2.3-6.4-.8-1.2-.7-2.5-.2-3.8-.7-1-1.4-1.9-2.1-2.9M400.4,504.4c.3.4.4.8.5,1.3,0-.5-.2-.9-.5-1.3M423.2,502.2h0c-.5-1.2-.4-2,.6-2.4-1,.5-1.2,1.3-.6,2.4"/>
        <path class="cls-4" d="M148.2,440.1c.2-2,.3-12.9.3-12.9.2-8.7-4-11.5-10.5-12.3-2.7-.9-5.4-.2-8.1-.2-.8,0-1.7.1-1.5-1.1.4-2.1-.8-2.1-2.4-2.1-4.4,0-4.5,0-4.7,4.5,0,.4,0,.8,0,1.1-.1,4.1-.3,8.3-.4,12.4.1,1.9,0,3.7-.3,5.5.1,2.6.1,5.2-.1,7.8,0,.5,0,.9,0,1.4,0,.2.1.3.2.5.1.1.3.2.5.3-.2,0-.4-.2-.5-.3,0,.2-.1.3-.2.5,0,.2,0,.3.1.5,0,.3-.1.6-.2.9,0,2.5,0,4.9,0,7.4.2,1.4,1.1,1.5,2.3,1.5,5.1.1,10.1-.2,15.2-.6,2.5-.9,4.7-2.2,6.4-4.2.3-.6.7-1.2,1.1-1.7,1.8-2.6,2.5-6.8,2.7-8.8M140.7,427.3s0,1.5,0,1.8c0,.4-.5,10.9-.5,10.9,0,.4,0,.9,0,1.3.5,1.1-.3,2.1-.4,3.1-.3.2-.6.4-.6.9-1.4,2-3.5,2.5-5.7,2.7-2,.2-4.1.1-6.1.2,0-.1,0-.2,0-.3,0-.6.1-1.2.2-1.8-.2-2.5,0-4.9.3-7.4,0,0,0-3,.1-3.4.1-.4,0-1.7,0-1.9,0-.1.3-1.5.3-1.7,0-.1,0-1.3,0-1.3-.9-.9-.2-2-.4-2.9,0-.4,0-.8,0-1.2,0-1.1.1-2.2.2-3.2-.3-.9-.3-1.5.9-1.5,2.9,0,5.9-.7,8.8.1,0,.1,0,.2.1.4,1.5,0,2.6.8,2.7,2.3v3Z"/>
        <path class="cls-4" d="M518.6,474.9c3.4,0,3-1.5,3-3.6s.4-5.3.8-9.7c.4-4.4,0-8.4,0-8.4.2-.4.2-.8-.2-1,.2-1.9.4-3.7.6-5.6-.6-7.5.1-14.9.8-22.4-1.1-3,1.6-2,2.7-2.7.5.2.9.5,1.4.7,3.7-.3,7.4-.7,11.1-1,2.8,0,5.6-.1,8.3-.2.3-.2.6-.4.9-.6-.3.2-.6.4-.9.6,17.7-1.8,30.2-17.8,30.2-17.8,3-3.5,5.3-8.4,5.9-13,3.4-24.5-9.5-35.7-29.3-38.3-8.1-2.7-16.4-.7-24.6-.7-2.4,0-5.1.3-4.5-3.2,1.1-6.3-2.5-6.4-7.2-6.4-13.5.2-13.5,0-14.2,13.8,0,1.1,0,2.3.1,3.4-.4,12.5-.9,25-1.3,37.5.4,5.6.2,11.3-.8,16.8.3,7.9.4,15.7-.4,23.6,0,1.4,0,2.8-.1,4.2.2.5.3.9.5,1.4.4.4,1,.6,1.6.9-.6-.3-1.2-.5-1.6-.9-.2.5-.4.9-.6,1.4.2.5.3.9.5,1.4-.2.9-.3,1.8-.5,2.7,0,7.4.2,14.9.2,22.3.5,4.3,3.4,4.6,6.9,4.7h10.4ZM553.7,419c-.4,0-.8,0-1.2,0,.4,0,.8,0,1.2,0M554.4,373.9c4.4.3,7.9,2.4,8.1,6.9.2,5.6-1.5,10.6-7.1,13.7-9.6,5.3-20.3,2.8-30.4,4.9-2.8-2.6-.7-5.9-1.1-8.8,0-1.2,0-2.4.1-3.7.2-3.3.4-6.5.6-9.8-1-2.6-.8-4.6,2.7-4.6,8.9,0,17.8-2.1,26.7.3.2.4.3.7.4,1.1"/>
        <path class="cls-4" d="M202.7,434.8c-.7-1.1-1.5-2.2-2.2-3.2-2.6-2.7-5.9-4.6-9.1-6.5-.7-.4-1.5-.9-2.2-1.4-.8-.6-1.8-1.5-1.5-2.4.4-1.3.9-2.9,2.7-3.3,1.4-.3,2.8-.4,4,.8.6.6.4,1.4.4,2.2,0,1.4-.9,3.8,2.2,2.7.2,0,.5.3.8.4,1.7.1,3.6,1.1,4.3-1.5,0-.6.2-1.2.2-1.8,0-.3,0-.6,0-.9-.3-3.7-2-6.4-5.3-8.1-2.8-1.6-5.9-1-8.8-.6-3.3.5-5.3,3.1-6.5,6.1h0c-.5.8-.7,1.7-.7,2.6-.8,1.7-.4,3.3.2,5,1.4,3.9,4.7,5.7,8,7.5,2,1.1,3.9,2.2,5.5,3.9,2.2,2.3,3,4.9,2,8-1,2.9-3.1,4.2-6,4.4-2.4.2-4.8.4-7.2.6-1.2,0-2,.4-1.6,2,.3,1.6.1,3.3.2,4.9,2.5.7,5-.3,7.4,0,2.6-.6,5.3-.5,7.7-1.9,6.4-3.5,9.1-11.1,6.3-17.9-.2-.5-.4-1-.6-1.5"/>
        <path class="cls-4" d="M649.6,369.3c-2.8-4.1-5.5-8.2-8.3-12.3-10.1-10.3-22.3-17.6-34.7-24.6-2.8-1.6-5.5-3.5-8.2-5.4-3.2-2.3-7-5.6-5.8-9.1,1.7-5,3.5-11.2,10.1-12.4,5.3-1,10.7-1.4,15,3,2.4,2.5,1.6,5.2,1.5,8.2-.2,5.3-3.6,14.3,8.3,10.1.7-.3,2,1,3,1.6,6.3.5,13.8,4.2,16.4-5.8.3-2.3.6-4.7.9-7,0-1.2-.1-2.4-.2-3.6-1-14-7.6-24.3-20.1-30.8-10.7-6.1-22.5-3.8-33.3-2.3-12.5,1.8-20,11.6-24.7,23.2v.3c-2.1,2.9-2.6,6.2-2.9,9.5-3,6.5-1.3,12.7.9,18.9,5.3,14.7,17.9,21.6,30.4,28.6,7.5,4.2,15,8.4,21,14.7,8.3,8.7,11.4,18.6,7.5,30.2-3.7,10.9-11.9,15.8-22.9,16.8-9.2.8-18.3,1.5-27.5,2.3-4.7.4-7.5,1.5-6.2,7.7,1.3,6,.5,12.4.7,18.6,9.4,2.7,18.8-1.1,28.2.2,9.7-2.4,20-2,29.1-7,24.1-13.3,34.4-42.3,23.8-67.9-.8-1.9-1.5-3.8-2.3-5.7"/>
        <path class="cls-3" d="M651.3,484.1c1.9-8-2.3-9.5-9.1-9.2-20.3.8-40.6,1.8-60.9,1.7-10.5,0-15.2,2.9-12.7,13.8.3,1.4.2,2.8.2,4.3,1.7,5.7-2.6,15.2,8.4,14.9,24.3-.6,48.5-1.8,72.8-2.8.6-.2,1.2-.4,1.7-.6-.6-.2-1.2-.4-1.8-.5-.4-.9-.8-1.7-1.2-2.6,9.4-5.2,1.1-12.7,2.6-19"/>
        <path class="cls-3" d="M346.3,87.2c1.9-8-2.3-9.5-9.1-9.2-20.3.8-40.6,1.8-60.9,1.7-10.5,0-15.2,2.9-12.7,13.8.3,1.4.2,2.8.2,4.3,1.7,5.7-2.6,15.2,8.4,14.9,24.3-.6,48.5-1.8,72.8-2.8.6-.2,1.2-.4,1.7-.6-.6-.2-1.2-.4-1.8-.5-.4-.9-.8-1.7-1.2-2.6,9.4-5.2,1.1-12.7,2.6-19"/>
        <path class="cls-3" d="M197.7,484.1c1.9-8-2.3-9.5-9.1-9.2-20.3.8-40.6,1.8-60.9,1.7-10.5,0-15.2,2.9-12.7,13.8.3,1.4.2,2.8.2,4.3,1.7,5.7-2.6,15.2,8.4,14.9,24.3-.6,48.5-1.8,72.8-2.8.6-.2,1.2-.4,1.7-.6-.6-.2-1.2-.4-1.8-.5-.4-.9-.8-1.7-1.2-2.6,9.4-5.2,1.1-12.7,2.6-19"/>
      </g>
    </g>
  </g>
</svg>